<?xml version="1.0" standalone="no"?>
<!DOCTYPE svg PUBLIC "-//W3C//DTD SVG 1.1//EN" "http://www.w3.org/Graphics/SVG/1.1/DTD/svg11.dtd" >
<svg xmlns="http://www.w3.org/2000/svg" xmlns:xlink="http://www.w3.org/1999/xlink" version="1.1">
<metadata>
Created by FontForge 20170731 at Sun May 16 12:18:26 2021
 By Aleksey,,,
Copyright 2004 Monotype Imaging, Inc. All rights reserved.
</metadata>
<defs>
<font id="SmartSansStd-Bold" horiz-adv-x="1024" >
  <font-face 
    font-family="Smart Sans Std Medium"
    font-weight="700"
    font-stretch="normal"
    units-per-em="2048"
    panose-1="2 11 8 6 2 2 2 3 2 4"
    ascent="1413"
    descent="-635"
    x-height="1075"
    cap-height="1393"
    bbox="-66 -512 1581 1835"
    underline-thickness="71"
    underline-position="-214"
    unicode-range="U+0020-FB02"
  />
<missing-glyph 
d="M25 0v1362h972v-1362h-972zM180 1266l332 -498l330 498h-662zM123 1178v-992q0 -1 82.5 123t164.5 249l83 124zM901 1178l-332 -496l332 -498v994zM842 98l-330 496l-332 -496h662z" />
    <glyph glyph-name="fi" unicode="fi" horiz-adv-x="837" 
d="M801 0h-297v860h-113v-860h-297v860h-71v215h71v62q0 64 10 110.5t34.5 86t72.5 59.5t119 20q87 0 204.5 -5t191.5 -10l75 -5v-226h-287v37h-51q-38 0 -55 -17.5t-17 -64.5v-47h410v-1075z" />
    <glyph glyph-name="fl" unicode="fl" horiz-adv-x="849" 
d="M811 0h-297v1204h-51q-38 0 -55 -17.5t-17 -64.5v-47h92v-215h-92v-860h-297v860h-71v215h71v66q0 63 10 108.5t34.5 84.5t72.5 59t119 20q87 0 207 -5t197 -10l77 -5v-1393z" />
    <glyph glyph-name=".notdef" 
d="M25 0v1362h972v-1362h-972zM180 1266l332 -498l330 498h-662zM123 1178v-992q0 -1 82.5 123t164.5 249l83 124zM901 1178l-332 -496l332 -498v994zM842 98l-330 496l-332 -496h662z" />
    <glyph glyph-name=".null" horiz-adv-x="0" 
 />
    <glyph glyph-name="nonmarkingreturn" horiz-adv-x="682" 
 />
    <glyph glyph-name="space" unicode=" " horiz-adv-x="307" 
 />
    <glyph glyph-name="exclam" unicode="!" horiz-adv-x="497" 
d="M414 1393l-45 -1014h-240l-45 1014h330zM397 0h-297v287h297v-287z" />
    <glyph glyph-name="quotedbl" unicode="&#x22;" horiz-adv-x="778" 
d="M692 1393l-41 -441h-184l-43 441h268zM352 1393l-39 -441h-184l-43 441h266z" />
    <glyph glyph-name="numbersign" unicode="#" 
d="M961 1153l-46 -135h-145l-53 -152h162l-45 -135h-160l-86 -262h-156l88 262h-153l-86 -262h-156l88 262h-150l48 135h145l53 152h-164l48 135h159l82 250h156l-84 -250h153l82 250h156l-84 -250h148zM614 1018h-151l-53 -152h153z" />
    <glyph glyph-name="dollar" unicode="$" 
d="M735 457q0 -72 -10.5 -124.5t-37.5 -98t-78.5 -72.5t-127.5 -37v-170h-184v170q-61 8 -106 28t-73 48.5t-45 69t-23.5 85t-6.5 101.5v168h285v-244q0 -17 1.5 -28t7 -22.5t18 -17.5t32.5 -6q64 0 64 74v121q0 14 -2.5 26.5t-4.5 21t-9.5 19t-10.5 15.5t-14 15t-13 12
t-15.5 12.5t-14.5 11.5l-183 143q-39 30 -64.5 59t-40 53.5t-22 58t-9 60t-1.5 72.5q0 69 11 120.5t37.5 96.5t76.5 72.5t123 38.5v127h184v-127q74 -10 124.5 -37t78 -71t38.5 -95.5t11 -120.5v-137h-282v213q0 34 -12 53t-48 19t-48.5 -19.5t-12.5 -52.5v-90
q0 -23 4.5 -41.5t17 -34.5t18 -22.5t25 -22t21.5 -16.5l184 -148q84 -66 110.5 -133.5t26.5 -179.5v-16z" />
    <glyph glyph-name="percent" unicode="%" horiz-adv-x="1132" 
d="M487 938q0 -91 -49 -140.5t-174 -49.5q-126 0 -174.5 49.5t-48.5 138.5v293q0 89 48.5 138.5t174.5 49.5q124 0 173.5 -49.5t49.5 -138.5v-291zM889 1393l-492 -1393h-153l491 1393h154zM1092 461v-291q0 -90 -49.5 -140t-174.5 -50q-126 0 -174.5 49.5t-48.5 138.5v293
q0 89 48.5 138.5t174.5 49.5q124 0 174 -49.5t50 -138.5zM299 897v369q0 13 -1.5 20.5t-10 15t-23.5 7.5q-37 0 -37 -43v-369q0 -43 37 -43q35 0 35 43zM903 129v369q0 13 -1.5 20.5t-10 15t-23.5 7.5q-37 0 -37 -43v-369q0 -43 37 -43q35 0 35 43z" />
    <glyph glyph-name="ampersand" unicode="&#x26;" horiz-adv-x="1044" 
d="M1014 0h-291l-47 68q-4 -4 -11.5 -10t-33 -22t-55.5 -28.5t-77.5 -22.5t-99.5 -10q-109 0 -182.5 24.5t-113.5 73.5t-56 110t-16 147v121q0 52 11 91.5t38.5 73t54.5 56.5t76 59l-49 70q-72 99 -72 203v16q0 70 15 122.5t52.5 97t109 68t175.5 23.5q85 0 148.5 -16.5
t102 -43.5t62 -68t32 -84t8.5 -97q0 -58 -12.5 -103.5t-37 -77t-41.5 -47t-45 -36.5l-100 -74l148 -211q8 40 8 111v92h235v-92q0 -235 -78 -346l142 -203v-35zM520 1004v57q0 35 -14.5 53.5t-52.5 18.5t-53 -19t-15 -53v-57q0 -17 0.5 -30.5t3.5 -25.5t4 -18t6 -15t6 -11
t8 -12l7 -9l26 -37q5 4 16 12.5t15 12t12 11.5t11 14.5t8 17.5t7 23t3.5 29t1.5 38zM549 250l-205 293q-12 -18 -12 -82v-113q0 -149 108 -149q23 0 42.5 5.5t31.5 12.5t20 14.5t12 12.5z" />
    <glyph glyph-name="quotesingle" unicode="'" horiz-adv-x="409" 
d="M338 1393l-41 -441h-184l-41 441h266z" />
    <glyph glyph-name="parenleft" unicode="(" horiz-adv-x="507" 
d="M481 -197h-153q-124 165 -205.5 403.5t-81.5 493.5t81.5 493.5t205.5 403.5h153q-77 -193 -120.5 -430.5t-43.5 -466.5t43.5 -466.5t120.5 -430.5z" />
    <glyph glyph-name="parenright" unicode=")" horiz-adv-x="507" 
d="M467 700q0 -255 -81.5 -493.5t-205.5 -403.5h-153q77 192 120 429.5t43 467.5t-43 467.5t-120 429.5h153q124 -165 205.5 -403.5t81.5 -493.5z" />
    <glyph glyph-name="asterisk" unicode="*" horiz-adv-x="757" 
d="M723 1118l-244 -51l166 -178l-143 -109l-123 213l-123 -213l-141 109l164 178l-244 51l61 172l221 -104l-26 241h176l-27 -241l224 104z" />
    <glyph glyph-name="plus" unicode="+" horiz-adv-x="993" 
d="M932 547h-367v-408h-137v408h-367v133h367v407h137v-407h367v-133z" />
    <glyph glyph-name="comma" unicode="," horiz-adv-x="409" 
d="M379 307l-133 -450h-215l61 450h287z" />
    <glyph glyph-name="hyphen" unicode="-" horiz-adv-x="614" 
d="M522 379h-461v256h461v-256z" />
    <glyph glyph-name="period" unicode="." horiz-adv-x="409" 
d="M344 0h-278v307h278v-307z" />
    <glyph glyph-name="slash" unicode="/" horiz-adv-x="716" 
d="M705 1454l-533 -1515h-160l533 1515h160z" />
    <glyph glyph-name="zero" unicode="0" horiz-adv-x="815" 
d="M778 340q0 -90 -14.5 -151.5t-53.5 -112.5t-113.5 -76t-188.5 -25t-189 25t-114 76t-53.5 112.5t-14.5 151.5v711q0 71 8.5 123t32.5 100t65 77.5t107.5 46.5t157.5 17t157.5 -17t107 -46.5t64.5 -77.5t32.5 -100t8.5 -123v-711zM469 272v858q0 25 -3 40t-17 27.5
t-41 12.5q-39 0 -50.5 -21t-11.5 -59v-858q0 -25 3 -40.5t17.5 -28.5t41.5 -13q38 0 49.5 21.5t11.5 60.5z" />
    <glyph glyph-name="one" unicode="1" horiz-adv-x="544" 
d="M477 0h-309v1032h-139v225q84 0 155.5 45.5t79.5 100.5h213v-1403z" />
    <glyph glyph-name="two" unicode="2" horiz-adv-x="841" 
d="M797 0h-740v143q0 147 33.5 236.5t114.5 183.5l194 225q53 61 66.5 90.5t13.5 84.5v167q0 25 -3 40t-17 27.5t-41 12.5q-39 0 -50.5 -21t-11.5 -59v-260h-311v181q0 71 8.5 123t32.5 100t65 77.5t107.5 46.5t157.5 17q92 0 158 -17t107 -46.5t65.5 -77t33 -100
t8.5 -123.5v-47q0 -30 -3 -58.5t-7.5 -51.5t-13 -48t-14.5 -41t-19.5 -38t-19.5 -32.5t-21.5 -30t-20 -25t-20.5 -24t-18 -20.5l-189 -215q-75 -83 -75 -184h430v-236z" />
    <glyph glyph-name="three" unicode="3" horiz-adv-x="845" 
d="M795 340q0 -90 -14.5 -151.5t-53.5 -112.5t-114 -76t-189 -25q-91 0 -158 17.5t-108 47t-65 77t-33 100t-9 123.5v162h309v-230q0 -25 3 -40.5t17.5 -28.5t41.5 -13q38 0 50.5 22t12.5 60v254q0 18 -2 29t-9 22.5t-23.5 17t-42.5 5.5h-115v231h4h4h4h4h4h5h4h4h4h4h5h4h4
h5h4h5h5h4h5h5h6h5h6h9q49 0 64 18.5t15 55.5v225q0 25 -3 40t-17 27.5t-41 12.5q-39 0 -50.5 -21t-11.5 -59v-198h-307v119q0 59 6 104t20.5 88t41.5 73t67 53.5t98.5 34.5t135.5 11q91 0 157 -17t107 -47t65 -77t33 -99.5t9 -123.5v-58q0 -121 -51 -193.5t-154 -76.5
l-47 -2v-6l37 -2q111 -6 163 -78.5t52 -194.5v-100z" />
    <glyph glyph-name="four" unicode="4" horiz-adv-x="894" 
d="M866 291h-110v-291h-307v291h-420v231l280 871h447v-856h110v-246zM465 1208h-8q-29 -129 -49 -209l-123 -467h172v472z" />
    <glyph glyph-name="five" unicode="5" horiz-adv-x="841" 
d="M793 340q0 -90 -14.5 -151.5t-53.5 -112.5t-114 -76t-189 -25q-91 0 -158 17.5t-108 47t-65 77t-33 100t-9 123.5v137h309v-205q0 -25 3 -40.5t17.5 -28.5t41.5 -13q38 0 50.5 22t12.5 60v385q0 16 -0.5 24.5t-3 21t-8 18.5t-16.5 11t-27 5q-20 0 -32.5 -6t-17.5 -19.5
t-6 -24t-1 -30.5v-59h-308v795h691v-236h-385v-276q23 34 72 61t106 27q49 0 87.5 -11t64.5 -28.5t44 -47t27.5 -57t15 -69.5t6.5 -73.5t1 -78.5v-264z" />
    <glyph glyph-name="six" unicode="6" horiz-adv-x="847" 
d="M795 340q0 -90 -14.5 -151.5t-53.5 -112.5t-114 -76t-189 -25t-189 25t-114 76t-53.5 112.5t-14.5 151.5v711q0 71 8.5 123t32.5 100t65 77.5t107.5 46.5t157.5 17t157.5 -17t107.5 -46.5t65 -77.5t32.5 -100t8.5 -123v-103h-310v182q0 25 -3 40t-17 27.5t-41 12.5
q-39 0 -50.5 -21t-11.5 -59v-348q85 92 189 92q49 0 87.5 -10.5t64 -26.5t43.5 -45t27.5 -55t14.5 -67.5t6 -71.5t1 -78v-180zM485 270v297q0 25 -3 40.5t-17 28.5t-41 13q-39 0 -50.5 -21t-11.5 -59v-297q0 -25 3 -41t17.5 -29.5t41.5 -13.5q38 0 49.5 21.5t11.5 60.5z" />
    <glyph glyph-name="seven" unicode="7" horiz-adv-x="712" 
d="M709 1188q-39 -97 -92 -266t-95 -342q-71 -282 -100 -580h-311q16 209 118 584q49 168 107.5 337.5t87.5 235.5h-420v236h705v-205z" />
    <glyph glyph-name="eight" unicode="8" horiz-adv-x="866" 
d="M815 319q0 -64 -9.5 -113.5t-35 -94t-67.5 -73.5t-110 -46t-159 -17q-113 0 -190.5 24.5t-118.5 73t-57.5 107t-16.5 139.5v142q0 111 51.5 175.5t130.5 74.5l35 4v6l-30 4q-86 11 -132.5 79t-46.5 189v78q0 81 15.5 139.5t54.5 107t115 73t188 24.5t188 -24.5t116 -73
t55.5 -107t15.5 -139.5v-78q0 -121 -45.5 -189t-128.5 -79l-35 -4v-6l31 -4q85 -11 135.5 -74.5t50.5 -175.5v-142zM496 907l2 223q0 38 -12.5 59t-51.5 21t-52 -21.5t-13 -58.5v-223q0 -76 63 -76q64 0 64 76zM506 268v256q0 78 -72 78q-74 0 -74 -76v-256q0 -82 72 -82
q43 0 58.5 21.5t15.5 58.5z" />
    <glyph glyph-name="nine" unicode="9" horiz-adv-x="847" 
d="M795 340q0 -90 -14.5 -151.5t-53.5 -112.5t-114 -76t-189 -25t-189 25t-114 76t-53.5 112.5t-14.5 151.5v119h309v-187q0 -25 3 -40.5t17.5 -28.5t41.5 -13q38 0 49.5 21.5t11.5 60.5v349q-31 -37 -81.5 -65t-106.5 -28q-49 0 -87.5 11.5t-64 28t-43.5 46.5t-27.5 57
t-14.5 69.5t-6 73.5t-1 79v158q0 71 8.5 123t32.5 100t65 77.5t107.5 46.5t157.5 17t157.5 -17t107.5 -46.5t65 -77.5t32.5 -100t8.5 -123v-711zM485 838v292q0 25 -3 40t-17 27.5t-41 12.5q-39 0 -50.5 -21t-11.5 -59v-292q0 -25 3 -41t17.5 -29.5t41.5 -13.5
q38 0 49.5 21.5t11.5 62.5z" />
    <glyph glyph-name="colon" unicode=":" horiz-adv-x="409" 
d="M344 768h-278v307h278v-307zM344 0h-278v307h278v-307z" />
    <glyph glyph-name="semicolon" unicode=";" horiz-adv-x="409" 
d="M348 768h-276v307h276v-307zM379 307l-133 -450h-215l61 450h287z" />
    <glyph glyph-name="less" unicode="&#x3c;" horiz-adv-x="993" 
d="M932 131l-871 418v131l871 418v-185l-662 -299l662 -299v-184z" />
    <glyph glyph-name="equal" unicode="=" horiz-adv-x="993" 
d="M932 682h-871v133h871v-133zM932 416h-871v133h871v-133z" />
    <glyph glyph-name="greater" unicode="&#x3e;" horiz-adv-x="993" 
d="M932 549l-871 -418v184l662 299l-662 299v185l871 -418v-131z" />
    <glyph glyph-name="question" unicode="?" horiz-adv-x="825" 
d="M774 1044q0 -23 -2 -44t-3.5 -38t-7 -35.5t-8 -30t-10.5 -28.5t-11.5 -24t-13.5 -23.5t-12.5 -21t-14 -21.5t-13.5 -20l-107 -154q-21 -28 -31 -45.5t-19 -48.5t-9 -70v-61h-285v51q0 139 76 246l113 153q28 37 41.5 70.5t13.5 83.5v147q0 20 -1 30.5t-6 24t-17.5 19.5
t-32.5 6q-28 0 -42 -13t-16 -26.5t-2 -40.5v-260h-303v181q0 59 5 103t19 87.5t39.5 73.5t64.5 53.5t97.5 35t135.5 11.5q92 0 157.5 -17.5t105 -47.5t62 -79t30 -101t7.5 -126zM512 0h-287v287h287v-287z" />
    <glyph glyph-name="at" unicode="@" horiz-adv-x="1361" 
d="M1270 512q0 -193 -84 -296t-244 -103q-60 0 -105.5 12.5t-67 30.5t-34.5 36.5t-15 31.5l-3 12q-3 -5 -7.5 -13.5t-22 -29.5t-37 -37t-52 -29.5t-66.5 -13.5q-155 0 -155 184q0 39 6 82l61 409q14 94 54.5 139.5t115.5 45.5q45 0 86 -20.5t60 -40.5l18 -21l10 72h187
l-76 -533q-6 -44 -6 -76q0 -44 19 -64t65 -20q69 0 101 57t32 205v246q0 98 -18.5 164.5t-65.5 117.5t-131.5 75t-212.5 24t-213.5 -24t-132.5 -75t-65.5 -117.5t-18.5 -164.5v-481q0 -93 21 -159.5t70 -117.5t137 -76.5t216 -25.5q74 0 144 9.5t116 23t81.5 27t52.5 22.5
l16 10l51 -112q-8 -5 -23 -12.5t-63.5 -27.5t-100 -35t-129.5 -27.5t-155 -12.5q-121 0 -215 18.5t-158 55.5t-108 85t-68.5 114.5t-34.5 135.5t-10 156v379q0 107 13 186.5t51 155t102 123.5t170 77t252 29t252.5 -29t170.5 -77t102.5 -123.5t51.5 -155.5t13 -186v-215z
M754 758q-37 41 -78 41q-6 0 -11 -1.5t-9 -3t-7.5 -5.5t-5.5 -7t-4.5 -9t-3.5 -9t-2.5 -11t-2 -11.5t-2 -12.5t-1.5 -12l-47 -328q-5 -35 -5 -39q0 -55 50 -55q23 0 41.5 15.5t25.5 31.5l8 16z" />
    <glyph glyph-name="A" unicode="A" horiz-adv-x="831" 
d="M825 0h-321l-23 293h-145l-23 -293h-307l187 1393h446zM461 549l-39 475l-8 123h-11q-2 -62 -8 -123l-41 -475h107z" />
    <glyph glyph-name="B" unicode="B" horiz-adv-x="854" 
d="M817 338q0 -174 -86.5 -256t-290.5 -82h-397v1393h391q201 0 284 -74.5t83 -233.5v-81q0 -145 -55 -209.5t-154 -71.5l-31 -2v-6l39 -2q119 -6 168 -80.5t49 -202.5v-92zM489 903v189q0 75 -75 75h-56v-340h56q75 0 75 76zM500 307v225q0 76 -76 76h-66v-377h66
q76 0 76 76z" />
    <glyph glyph-name="C" unicode="C" horiz-adv-x="841" 
d="M805 350q0 -73 -9 -126t-33.5 -102.5t-66.5 -80t-110.5 -48.5t-163.5 -18t-164 18t-111.5 48.5t-67 80t-33.5 102.5t-9 126v690q0 73 9 126t33.5 102.5t67 80t111.5 48.5t164 18t163.5 -18t110.5 -48.5t66.5 -80t33.5 -102.5t9 -126v-161h-316v243q0 37 -13.5 58.5
t-53.5 21.5t-54 -21.5t-14 -58.5v-848q0 -37 14 -58t54 -21t53.5 21t13.5 58v281h316v-205z" />
    <glyph glyph-name="D" unicode="D" horiz-adv-x="854" 
d="M817 338q0 -174 -86.5 -256t-290.5 -82h-397v1393h408q202 0 284 -77.5t82 -250.5v-727zM500 307v785q0 75 -76 75h-64v-936h64q76 0 76 76z" />
    <glyph glyph-name="E" unicode="E" horiz-adv-x="667" 
d="M645 0h-602v1393h602v-234h-285v-319h273v-246h-273v-352h285v-242z" />
    <glyph glyph-name="F" unicode="F" horiz-adv-x="653" 
d="M631 1159h-271v-350h258v-246h-258v-563h-317v1393h588v-234z" />
    <glyph glyph-name="G" unicode="G" horiz-adv-x="843" 
d="M807 0h-229l-31 113q-92 -142 -258 -142q-77 0 -126 19.5t-77 64.5t-38.5 107.5t-10.5 159.5v718q0 73 9 126t33.5 102.5t67 80t111.5 48.5t164 18t163.5 -18t110.5 -48.5t66.5 -80t33.5 -102.5t9 -126v-129h-316v211q0 37 -13.5 58.5t-53.5 21.5t-54 -21.5t-14 -58.5
v-821q0 -37 14 -59.5t54 -22.5t53.5 21.5t13.5 58.5v227h-67v242h385v-768z" />
    <glyph glyph-name="H" unicode="H" horiz-adv-x="856" 
d="M813 0h-317v592h-136v-592h-317v1393h317v-551h136v551h317v-1393z" />
    <glyph glyph-name="I" unicode="I" horiz-adv-x="403" 
d="M360 0h-317v1393h317v-1393z" />
    <glyph glyph-name="J" unicode="J" horiz-adv-x="497" 
d="M455 313q0 -64 -3.5 -106.5t-18 -90.5t-41 -76t-74.5 -46.5t-117 -18.5q-55 0 -103.5 6.5t-69.5 13.5l-22 7v242q14 -8 53 -8q49 0 63.5 26t14.5 78v1053h318v-1080z" />
    <glyph glyph-name="K" unicode="K" horiz-adv-x="866" 
d="M860 0h-338l-153 645h-9v-645h-317v1393h317v-584h9l143 584h317l-186 -666z" />
    <glyph glyph-name="L" unicode="L" horiz-adv-x="630" 
d="M608 0h-565v1393h317v-1151h248v-242z" />
    <glyph glyph-name="M" unicode="M" horiz-adv-x="1157" 
d="M1114 0h-278v727l6 184h-8q-15 -102 -27 -184l-113 -727h-250l-112 727l-27 184h-8q6 -102 6 -184v-727h-260v1393h410l94 -645l18 -195h8q9 123 19 195l94 645h428v-1393z" />
    <glyph glyph-name="N" unicode="N" horiz-adv-x="856" 
d="M813 0h-305l-160 649q-9 36 -18.5 87.5t-15.5 84.5l-5 33h-8q8 -123 8 -205v-649h-266v1393h326l139 -611l39 -202h8q-8 122 -8 204v609h266v-1393z" />
    <glyph glyph-name="O" unicode="O" horiz-adv-x="843" 
d="M807 350q0 -73 -9 -126t-33.5 -102.5t-67 -80t-112 -48.5t-165.5 -18t-165.5 18t-112 48.5t-67 80t-33.5 102.5t-9 126v690q0 73 9 126t33.5 102.5t67 80t112 48.5t165.5 18t165.5 -18t112 -48.5t67 -80t33.5 -102.5t9 -126v-690zM489 274v848q0 37 -14 58.5t-55 21.5
q-42 0 -56 -21.5t-14 -58.5v-848q0 -37 14 -58t56 -21q41 0 55 21t14 58z" />
    <glyph glyph-name="P" unicode="P" horiz-adv-x="847" 
d="M811 758q0 -159 -83 -233t-284 -74h-88v-451h-317v1393h405q201 0 284 -74.5t83 -233.5v-327zM496 760v332q0 75 -76 75h-66v-483h66q76 0 76 76z" />
    <glyph glyph-name="Q" unicode="Q" horiz-adv-x="847" 
d="M811 350q0 -127 -30 -205.5t-113 -121.5l77 -238h-321l-51 192q-103 4 -171.5 33t-103 81.5t-48 113t-13.5 145.5v690q0 73 9 126t33.5 102.5t67 80t112 48.5t165.5 18t165.5 -18t112 -48.5t67 -80t33.5 -102.5t9 -126v-690zM494 274v848q0 37 -14 58.5t-56 21.5
t-56 -21.5t-14 -58.5v-848q0 -37 14 -58t56 -21t56 21t14 58z" />
    <glyph glyph-name="R" unicode="R" horiz-adv-x="888" 
d="M852 0h-317q-31 69 -31 164v309q0 76 -76 76h-68v-549h-317v1393h406q201 0 283.5 -74.5t82.5 -233.5v-120q0 -75 -15.5 -129t-45 -85.5t-67 -47.5t-85.5 -19l-31 -2v-6l37 -2q113 -6 163 -74t50 -190v-205q0 -77 6 -120t25 -65v-20zM500 885v207q0 75 -76 75h-66v-358
h66q76 0 76 76z" />
    <glyph glyph-name="S" unicode="S" horiz-adv-x="839" 
d="M803 350q0 -72 -9.5 -126t-34.5 -103t-67.5 -79.5t-111 -48.5t-162.5 -18t-162 18t-110 48.5t-66.5 79t-33.5 102.5t-9 127v187h315v-271q0 -38 13.5 -60t54.5 -22t54 22t13 60v135q0 27 -6 48t-21.5 39.5t-24.5 26.5t-32 26q-7 5 -10 8l-200 160q-42 34 -70.5 66
t-45 59.5t-24.5 63.5t-10 66t-2 80q0 90 16.5 154t57 115t117 76.5t190.5 25.5q76 0 135.5 -11.5t100.5 -35.5t69 -54.5t43.5 -73.5t22 -88.5t6.5 -102.5v-152h-314v236q0 38 -12.5 58.5t-52.5 20.5t-53 -21t-13 -58v-99q0 -22 5 -41.5t10 -31.5t18 -26t18.5 -19.5t23 -18.5
t20.5 -16l204 -164q93 -74 121.5 -148t28.5 -200v-19z" />
    <glyph glyph-name="T" unicode="T" horiz-adv-x="778" 
d="M762 1159h-213v-1159h-318v1159h-215v234h746v-234z" />
    <glyph glyph-name="U" unicode="U" horiz-adv-x="839" 
d="M803 340q0 -71 -9.5 -124.5t-35 -100.5t-68 -76.5t-110.5 -46.5t-160 -17t-160 17t-110.5 46.5t-68 76.5t-35 100.5t-9.5 124.5v1053h317v-1098q0 -37 13.5 -58.5t52.5 -21.5t52 21.5t13 58.5v1098h318v-1053z" />
    <glyph glyph-name="V" unicode="V" horiz-adv-x="811" 
d="M805 1393l-191 -1393h-417l-191 1393h320l75 -932l5 -103h8q0 52 4 103l76 932h311z" />
    <glyph glyph-name="W" unicode="W" horiz-adv-x="1349" 
d="M1343 1393l-180 -1393h-395l-80 758l-8 164h-10q-2 -103 -8 -164l-80 -758h-396l-180 1393h320l71 -932l4 -103h9q0 52 4 103l75 932h371l76 -932l4 -103h8q0 52 4 103l72 932h319z" />
    <glyph glyph-name="X" unicode="X" horiz-adv-x="821" 
d="M815 0h-326l-65 410l-8 112h-10q-3 -71 -9 -112l-65 -410h-326l195 707l-185 686h316l65 -400l9 -112h10q2 71 8 112l65 400h316l-184 -686z" />
    <glyph glyph-name="Y" unicode="Y" horiz-adv-x="813" 
d="M807 1393l-242 -901v-492h-317v492l-242 901h328l65 -441l11 -143h6q4 102 10 143l66 441h315z" />
    <glyph glyph-name="Z" unicode="Z" horiz-adv-x="716" 
d="M711 0h-705v213l346 946h-325v234h663v-213l-352 -938h373v-242z" />
    <glyph glyph-name="bracketleft" unicode="[" horiz-adv-x="466" 
d="M467 -197h-420v1794h420v-92h-174v-1609h174v-93z" />
    <glyph glyph-name="backslash" unicode="\" horiz-adv-x="655" 
d="M672 -61h-158l-532 1515h157z" />
    <glyph glyph-name="bracketright" unicode="]" horiz-adv-x="466" 
d="M420 -197h-420v93h174v1609h-174v92h420v-1794z" />
    <glyph glyph-name="asciicircum" unicode="^" horiz-adv-x="993" 
d="M827 881h-153l-178 397l-174 -397h-156l258 534h143z" />
    <glyph glyph-name="underscore" unicode="_" 
d="M1024 -209h-1024v103h1024v-103z" />
    <glyph glyph-name="grave" unicode="`" 
d="M686 1180h-246l-102 245h297z" />
    <glyph glyph-name="a" unicode="a" horiz-adv-x="800" 
d="M764 0h-305q-21 61 -21 102q-17 -26 -30 -42.5t-38.5 -39t-60.5 -34t-78 -11.5q-93 0 -143.5 62.5t-50.5 177.5v143q0 115 38 168t146 88l215 72v158q0 40 -8 55.5t-41 15.5q-31 0 -40 -15.5t-9 -53.5v-150h-285v107q0 145 76 220t264 75t264 -75t76 -220v-547
q0 -167 31 -215v-41zM438 242v262l-53 -21q-31 -12 -41 -29.5t-10 -62.5v-119q0 -36 10 -53.5t41 -17.5q20 0 33.5 10.5t16.5 20.5z" />
    <glyph glyph-name="b" unicode="b" horiz-adv-x="772" 
d="M735 231q0 -131 -47 -193.5t-147 -62.5q-43 0 -80 15t-62 39.5t-39 44t-24 39.5l-10 -113h-287v1393h297v-441q15 29 29 49.5t38 45.5t59 38t79 13q194 0 194 -246v-621zM438 324v436q0 26 -2 40.5t-14 28t-35 13.5q-17 0 -30 -11t-17 -21l-4 -11v-523q1 -4 4 -9.5
t16.5 -15t30.5 -9.5q33 0 42 21t9 61z" />
    <glyph glyph-name="c" unicode="c" horiz-adv-x="759" 
d="M723 279q0 -58 -9 -102.5t-32.5 -83.5t-61.5 -64t-98 -39.5t-141 -14.5q-100 0 -168.5 21t-106 62.5t-53.5 94.5t-16 126v514q0 73 15.5 126t53 95t106.5 63t169 21t168.5 -21t105.5 -63t52.5 -95t15.5 -126v-148h-287v184q0 44 -9.5 64t-41.5 20t-41.5 -19t-9.5 -63
v-577q0 -44 9.5 -64t41.5 -20t41.5 19t9.5 63v209h287v-182z" />
    <glyph glyph-name="d" unicode="d" horiz-adv-x="772" 
d="M733 0h-287l-10 113q-10 -20 -24 -39.5t-39 -44t-62 -39.5t-80 -15q-100 0 -147 62.5t-47 193.5v621q0 246 194 246q44 0 79 -13t59 -38t38 -45.5t29 -49.5v441h297v-1393zM436 276v523q-1 5 -4 12t-16.5 19t-30.5 12q-33 0 -42 -21t-9 -61v-436q0 -26 2 -40.5t14 -28
t35 -13.5q17 0 30 8.5t17 17.5z" />
    <glyph glyph-name="e" unicode="e" horiz-adv-x="759" 
d="M723 281q0 -73 -15.5 -126t-53 -95t-105.5 -63.5t-168 -21.5t-168.5 21t-106 62.5t-53.5 94.5t-16 126v514q0 73 15.5 126t53 95t106.5 63t169 21t168.5 -21t105.5 -63t52.5 -95t15.5 -126v-312h-389v-225q0 -31 2 -46.5t14 -27.5t35 -12q34 0 42.5 19.5t8.5 64.5v145
h287v-118zM438 676v153q0 44 -9.5 64t-43.5 20t-43.5 -19t-9.5 -63v-155h106z" />
    <glyph glyph-name="f" unicode="f" horiz-adv-x="546" 
d="M524 1194q-20 8 -61 8q-72 0 -72 -82v-45h113v-215h-113v-860h-297v860h-71v215h71v66q0 63 10 108.5t34.5 84.5t72.5 59t119 20q55 0 103.5 -6.5t69.5 -13.5l21 -7v-190v-2z" />
    <glyph glyph-name="g" unicode="g" horiz-adv-x="821" 
d="M805 41q0 -162 -103 -248t-301 -86q-189 0 -276.5 55t-87.5 146q0 125 149 153q-61 20 -90 47q-49 49 -49 132q0 50 17 88t42.5 57t48 28t42.5 11q-55 21 -88.5 65.5t-43.5 86.5t-10 90v159q0 273 338 273q44 0 86 -6t62 -12l20 -5h244v-184h-94q8 -8 15 -42t7 -77v-106
q0 -277 -338 -277l-61 4q-3 0 -7.5 -2t-12 -11.5t-7.5 -25.5q0 -27 25 -37t88 -10h72q74 0 127.5 -11.5t97.5 -40.5t66 -82.5t22 -131.5zM444 645l2 205q0 43 -9 60.5t-42 17.5t-43 -18t-10 -60v-205q0 -43 9 -60.5t42 -17.5t42 17.5t9 60.5zM528 -37q0 43 -25.5 60.5
t-86.5 17.5h-92q-5 -2 -11.5 -7t-18 -25t-11.5 -44q0 -41 33.5 -62.5t89.5 -21.5t89 21t33 61z" />
    <glyph glyph-name="h" unicode="h" horiz-adv-x="772" 
d="M735 0h-297v760q0 26 -2 40.5t-14 28t-35 13.5q-17 0 -30 -11t-17 -21l-4 -11v-799h-297v1393h297v-441q15 29 29 49.5t38 45.5t59 38t79 13q194 0 194 -246v-852z" />
    <glyph glyph-name="i" unicode="i" horiz-adv-x="370" 
d="M334 1167h-297v226h297v-226zM334 0h-297v1075h297v-1075z" />
    <glyph glyph-name="j" unicode="j" horiz-adv-x="417" 
d="M379 1167h-297v226h297v-226zM379 12q0 -54 -4.5 -95t-19.5 -82t-40 -67t-68.5 -42.5t-103.5 -16.5q-50 0 -98.5 6.5t-72.5 13.5l-23 7v219q30 -10 71 -10q62 0 62 92v24v1014h297v-1034v-29z" />
    <glyph glyph-name="k" unicode="k" horiz-adv-x="776" 
d="M770 0h-307l-117 502h-10v-502h-297v1393h297v-768h10l107 450h297l-158 -512z" />
    <glyph glyph-name="l" unicode="l" horiz-adv-x="374" 
d="M336 0h-297v1393h297v-1393z" />
    <glyph glyph-name="m" unicode="m" horiz-adv-x="1165" 
d="M1126 0h-297v760v8q0 19 -1 28.5t-5 22t-14.5 18t-28.5 5.5q-17 0 -29.5 -11t-16.5 -21l-3 -11v-799h-297v760v8q0 19 -1 28.5t-5 22t-14.5 18t-28.5 5.5q-17 0 -29.5 -11t-15.5 -21l-4 -11v-799h-297v1075h287l10 -133q59 156 201 156q85 0 129.5 -44t54.5 -112
q67 156 211 156q194 0 194 -246v-852z" />
    <glyph glyph-name="n" unicode="n" horiz-adv-x="774" 
d="M735 0h-297v760q0 26 -2 40.5t-14 28t-35 13.5q-17 0 -30 -11t-17 -21l-4 -11v-799h-297v1075h287l10 -133q59 156 205 156q194 0 194 -246v-852z" />
    <glyph glyph-name="o" unicode="o" horiz-adv-x="770" 
d="M733 281q0 -73 -16 -126t-54 -95t-107.5 -63.5t-170.5 -21.5t-170.5 21t-107.5 62.5t-54 94.5t-16 126v514q0 73 16 126t54 95t107.5 63t170.5 21t170.5 -21t107.5 -63t54 -95t16 -126v-512zM436 252v577q0 44 -9.5 64t-41.5 20t-41.5 -19t-9.5 -63v-577q0 -44 9.5 -64
t41.5 -20t41.5 19t9.5 63z" />
    <glyph glyph-name="p" unicode="p" horiz-adv-x="772" 
d="M735 231q0 -131 -47 -193.5t-147 -62.5q-123 0 -205 127v-378h-297v1351h287l10 -133q59 156 205 156q194 0 194 -246v-621zM438 324v436q0 26 -2 40.5t-14 28t-35 13.5q-17 0 -30 -11t-17 -21l-4 -11v-523q1 -4 4 -9.5t16.5 -15t30.5 -9.5q33 0 42 21t9 61z" />
    <glyph glyph-name="q" unicode="q" horiz-adv-x="772" 
d="M733 -276h-297v378q-82 -127 -205 -127q-100 0 -147 62.5t-47 193.5v621q0 246 194 246q146 0 205 -156l10 133h287v-1351zM436 276v523q-1 5 -4 12t-16.5 19t-30.5 12q-33 0 -42 -21t-9 -61v-436q0 -26 2 -40.5t14 -28t35 -13.5q17 0 30 8.5t17 17.5z" />
    <glyph glyph-name="r" unicode="r" horiz-adv-x="544" 
d="M530 758h-20q-25 22 -76 22q-35 0 -62 -17.5t-36 -35.5v-727h-297v1075h287l10 -133q18 63 59.5 109.5t104.5 46.5l30 -4v-336z" />
    <glyph glyph-name="s" unicode="s" horiz-adv-x="733" 
d="M711 287q0 -70 -15.5 -123t-52 -97.5t-106 -68t-168.5 -23.5t-169 23.5t-107.5 67t-53.5 95.5t-16 118v133h290v-158q0 -45 9.5 -64.5t44.5 -19.5t44 19.5t9 64.5v55q0 43 -11.5 59t-58.5 46l-174 108q-51 31 -78.5 61.5t-45 86t-17.5 139.5q0 142 73.5 215.5t260.5 73.5
q77 0 135.5 -14.5t95 -40t59 -63.5t31 -80t8.5 -95v-107h-280v146q0 23 -2 36t-14 24t-35 11t-35 -10.5t-14.5 -23t-2.5 -35.5v-47q0 -21 3 -36t14.5 -27.5t15.5 -16.5t24.5 -17t22.5 -14l174 -113q86 -56 114 -121t28 -167z" />
    <glyph glyph-name="t" unicode="t" horiz-adv-x="548" 
d="M526 6q-83 -26 -196 -26q-59 0 -103 15.5t-69 40t-40 62t-19.5 74t-4.5 84.5v604h-71v215h71l21 205h276v-205h131v-215h-131v-563q0 -43 15 -64.5t57 -21.5q18 0 34 2t23 4l6 2v-213z" />
    <glyph glyph-name="u" unicode="u" horiz-adv-x="768" 
d="M729 0h-283l-10 102q-3 -5 -8.5 -13.5t-25 -30.5t-41.5 -39t-57.5 -30.5t-72.5 -13.5q-100 0 -147 62.5t-47 193.5v844h297v-751q0 -27 1.5 -41t13 -27.5t34.5 -13.5q17 0 29.5 8.5t15.5 17.5l4 8v799h297v-1075z" />
    <glyph glyph-name="v" unicode="v" horiz-adv-x="708" 
d="M702 1075l-159 -1075h-377l-160 1075h285l49 -604l10 -205h8q5 123 11 205l49 604h284z" />
    <glyph glyph-name="w" unicode="w" horiz-adv-x="1091" 
d="M1085 1075l-133 -1075h-331l-58 522q-12 122 -12 205h-8q0 -73 -13 -205l-57 -522h-332l-135 1075h285l39 -645l6 -184h12q0 102 6 184l52 645h278l51 -645l8 -184h13q0 102 4 184l39 645h286z" />
    <glyph glyph-name="x" unicode="x" horiz-adv-x="733" 
d="M727 0h-285l-61 338q-4 23 -6.5 53.5t-2.5 50.5l-1 19h-9q0 -72 -10 -123l-61 -338h-285l152 563l-140 512h283l51 -287q4 -23 6.5 -53.5t3.5 -49.5v-19h9q2 71 10 122l51 287h283l-140 -512z" />
    <glyph glyph-name="y" unicode="y" horiz-adv-x="708" 
d="M702 1075l-145 -1034q-25 -179 -85.5 -255.5t-182.5 -76.5q-62 0 -118.5 6.5t-82.5 12.5l-25 6v213q66 -17 127 -17q44 0 58.5 19t27.5 82l5 20h-115l-160 1024h285l49 -604l10 -205h8q5 123 11 205l49 604h284z" />
    <glyph glyph-name="z" unicode="z" horiz-adv-x="622" 
d="M616 0h-610v174l297 688h-287v213h584v-194l-285 -658h301v-223z" />
    <glyph glyph-name="braceleft" unicode="{" horiz-adv-x="583" 
d="M553 -197h-61q-63 0 -111.5 9.5t-81.5 25.5t-56.5 44t-37 56t-20.5 71t-9 80.5t-2 92.5v135v46q1 35 0.5 65t-1.5 55.5t-4 46.5t-7 37.5t-11.5 29t-18 22t-25.5 15.5t-33.5 8.5t-42.5 2.5v111q101 0 122.5 51.5t20.5 221.5v14.5v14v15.5v146q0 55 2 92.5t9 80.5t20.5 71
t37 55.5t56.5 43.5t81.5 25.5t111.5 9.5h61v-92q-76 0 -104.5 -44.5t-28.5 -160.5v-227v-21q0 -60 -0.5 -88t-6 -73.5t-16 -66.5t-31.5 -49t-52 -40t-77 -21t-108 -9v-9q62 0 108 -9t77 -21t52 -40t31.5 -49t16 -66.5t6 -73.5t0.5 -88v-21v-228q0 -116 28.5 -160t104.5 -44
v-93z" />
    <glyph glyph-name="bar" unicode="|" horiz-adv-x="231" 
d="M184 -512h-137v2048h137v-2048z" />
    <glyph glyph-name="braceright" unicode="}" horiz-adv-x="583" 
d="M553 645q-101 0 -122.5 -53t-20.5 -229v-46v-135q0 -55 -2 -92.5t-9 -80.5t-20.5 -71t-37 -56t-56.5 -44t-81.5 -25.5t-111.5 -9.5h-61v93q76 0 104.5 44t28.5 160v228v21q0 60 0.5 88t6 73.5t16 66.5t31.5 49t52 40t77 21t108 9v9q-62 0 -108 9t-77 21t-52 40t-31.5 49
t-16 66.5t-6 73.5t-0.5 88v21v227q0 116 -28.5 160.5t-104.5 44.5v92h61q63 0 111.5 -9.5t81.5 -25.5t56.5 -43.5t37 -55.5t20.5 -71t9 -80.5t2 -92.5v-146v-44v-63t1 -53.5t4 -44.5t7 -36t11.5 -28.5t18 -21.5t25 -15t33.5 -8.5t43 -2.5v-111z" />
    <glyph glyph-name="asciitilde" unicode="~" horiz-adv-x="993" 
d="M920 555q-9 -6 -26 -15t-68 -24.5t-101 -15.5q-68 0 -222 48t-235 48q-50 0 -98.5 -16.5t-71.5 -33.5l-24 -16v172q9 6 25.5 15.5t67.5 25t101 15.5q85 0 167.5 -24t155.5 -48t134 -24q50 0 99 16t72 32l24 17v-172z" />
    <glyph glyph-name="uni00A0" unicode="&#xa0;" horiz-adv-x="849" 
 />
    <glyph glyph-name="exclamdown" unicode="&#xa1;" horiz-adv-x="497" 
d="M397 786h-297v287h297v-287zM414 -319h-330l45 1013h240z" />
    <glyph glyph-name="cent" unicode="&#xa2;" 
d="M668 621q0 -116 -47.5 -182.5t-167.5 -84.5v-211h-177v209q-125 16 -176 84t-51 185v444q0 118 49.5 185t175.5 85v109h177v-111q121 -18 169 -85t48 -183v-123h-260v158q0 22 -1 31.5t-4.5 21.5t-12.5 16.5t-25 4.5q-30 0 -40 -18t-10 -56v-502q0 -40 8.5 -57t38.5 -17
q31 0 38.5 16.5t7.5 57.5v178h260v-155z" />
    <glyph glyph-name="sterling" unicode="&#xa3;" horiz-adv-x="849" 
d="M813 901h-303v229q0 25 -3 40t-16 27.5t-38 12.5q-36 0 -47 -21t-11 -59v-45q0 -65 27 -194t27 -174h202v-232h-211q0 -51 -18 -122.5t-43 -126.5h422v-236h-733v215q30 41 56 122t26 148h-113v232h119q0 21 -34 152t-34 206q0 77 15.5 134.5t54 106t112 74t181.5 25.5
q87 0 151.5 -17t104.5 -47t64 -77t33 -100t9 -123v-150z" />
    <glyph glyph-name="currency" unicode="&#xa4;" horiz-adv-x="1280" 
d="M1120 254q-23 -22 -67 -68l-66 -69q-94 94 -141 139q-109 -68 -236 -68t-235 68q-71 -67 -142 -139q-22 23 -66.5 69t-66.5 68q22 21 142 135q-68 111 -68 229q0 126 68 230q-24 24 -142 137q22 22 66.5 68t66.5 69q71 -72 142 -139q111 68 235 68q130 0 234 -68
q49 45 143 139l66 -69t67 -68q-94 -90 -141 -137q68 -105 68 -230q0 -120 -68 -229zM856 621q0 103 -74.5 172t-171.5 69q-103 0 -174 -71t-71 -170q0 -100 72 -172t173 -72t173.5 71.5t72.5 172.5z" />
    <glyph glyph-name="yen" unicode="&#xa5;" horiz-adv-x="849" 
d="M827 1393l-196 -695h145v-174h-201v-71h201v-174h-201v-279h-301v279h-200v174h200v71h-200v174h145l-196 695h331l64 -441l10 -123h6q4 82 10 123l64 441h319z" />
    <glyph glyph-name="brokenbar" unicode="&#xa6;" horiz-adv-x="231" 
d="M184 666h-137v716h137v-716zM184 -358h-137v716h137v-716z" />
    <glyph glyph-name="section" unicode="&#xa7;" horiz-adv-x="819" 
d="M754 27q0 -70 -16 -124t-53 -99.5t-106.5 -70t-168.5 -24.5t-168.5 24.5t-106.5 70t-53 99.5t-16 124v157h260v-186q0 -47 16 -71.5t68 -24.5t69 24.5t17 71.5v72q0 59 -17 80.5t-77 54.5q-11 7 -17 10l-162 90q-83 46 -118 118t-35 187q0 157 67 236q-35 47 -47 105.5
t-12 156.5q0 69 15.5 122t51 96t102.5 66t163 23t162.5 -22t102.5 -65t51 -95t15 -121v-135h-245v156q0 46 -17.5 71t-68.5 25t-66.5 -24.5t-15.5 -71.5v-46q0 -24 1.5 -40t9.5 -31t11.5 -21.5t22.5 -19t26.5 -16.5t38.5 -21l162 -88q94 -52 124 -127t30 -191
q0 -81 -22 -143t-42 -84q64 -66 64 -233v-45zM518 522q0 30 -8 54t-16.5 38t-32 31t-34 23.5t-42.5 23.5l-66 35q-14 -31 -14 -92q0 -37 7 -62t29 -45.5t38 -31t59 -33.5l68 -37q12 35 12 96z" />
    <glyph glyph-name="dieresis" unicode="&#xa8;" 
d="M745 1180h-196v245h196v-245zM473 1180h-194v245h194v-245z" />
    <glyph glyph-name="copyright" unicode="&#xa9;" horiz-adv-x="1474" 
d="M1413 705q0 -147 -50.5 -280t-138.5 -232t-215.5 -157.5t-273.5 -58.5q-145 0 -271.5 58.5t-214 157t-138 232t-50.5 280.5q0 198 85 364t240.5 265.5t348.5 99.5q146 0 273.5 -58.5t215.5 -157t138.5 -232t50.5 -281.5zM1294 705q0 123 -41 234t-113.5 193t-177.5 130.5
t-227 48.5q-160 0 -288 -82.5t-197.5 -220.5t-69.5 -303q0 -164 69.5 -301.5t197.5 -220.5t288 -83q162 0 291 83t198.5 220.5t69.5 301.5zM987 350q0 -200 -248 -200q-133 0 -191.5 52t-58.5 150v721q0 85 60 138t190 53q248 0 248 -201v-244h-205v248q0 32 -8.5 44.5
t-32.5 12.5t-32.5 -12.5t-8.5 -44.5v-723q0 -31 9 -44t32 -13q24 0 32.5 12.5t8.5 44.5v287h205v-281z" />
    <glyph glyph-name="ordfeminine" unicode="&#xaa;" horiz-adv-x="559" 
d="M528 770h-209q-5 14 -8.5 28.5t-4.5 22.5l-1 8q-65 -73 -125 -73q-76 0 -112.5 41.5t-36.5 126.5v57q0 68 30 101t109 53l135 34v76q0 35 -6.5 47.5t-32.5 12.5t-32.5 -12t-6.5 -46v-71h-184v53q0 94 51 140t182 46q130 0 180 -46t50 -140v-303q0 -79 22 -123v-33z
M528 616h-487v91h487v-91zM305 913v152l-43 -14q-27 -9 -35 -19.5t-8 -40.5v-55q0 -30 9.5 -40.5t33.5 -10.5q14 0 24.5 7t14.5 14z" />
    <glyph glyph-name="guillemotleft" unicode="&#xab;" horiz-adv-x="643" 
d="M604 113l-248 245v410l248 246v-287l-115 -143v-41l115 -144v-286zM285 113l-246 245v410l248 246v-287l-115 -143v-41l113 -144v-286z" />
    <glyph glyph-name="logicalnot" unicode="&#xac;" horiz-adv-x="993" 
d="M932 416h-137v266h-734v133h871v-399z" />
    <glyph glyph-name="uni00AD" unicode="&#xad;" horiz-adv-x="614" 
d="M522 379h-461v256h461v-256z" />
    <glyph glyph-name="registered" unicode="&#xae;" 
d="M963 956q0 -186 -132 -317t-319 -131q-186 0 -318.5 131t-132.5 317q0 187 131.5 319t317.5 132q188 0 320.5 -132t132.5 -319zM883 956h2q0 155 -109 264t-264 109q-154 0 -263.5 -109t-109.5 -264q0 -154 108.5 -262t262.5 -108q155 0 264 108t109 262zM725 692h-154
q-14 28 -14 64v108q0 33 -37 33h-39v-205h-157v535h204q181 0 181 -129v-31q0 -56 -29 -84.5t-76 -28.5h-16v-2l18 -2q105 -11 105 -106v-74q0 -60 14 -70v-8zM553 1040l2 58q0 32 -37 32h-41v-122h39q37 0 37 32z" />
    <glyph glyph-name="macron" unicode="&#xaf;" 
d="M784 1374l-61 -194h-483l61 194h483z" />
    <glyph glyph-name="degree" unicode="&#xb0;" horiz-adv-x="573" 
d="M528 1171q0 -107 -68.5 -181.5t-172.5 -74.5t-173 74.5t-69 181.5t69 181.5t173 74.5t172.5 -74.5t68.5 -181.5zM399 1171q0 57 -30 94.5t-82 37.5t-82.5 -37.5t-30.5 -94.5t30 -94t83 -37q52 0 82 37t30 94z" />
    <glyph glyph-name="plusminus" unicode="&#xb1;" horiz-adv-x="993" 
d="M932 621h-367v-408h-137v408h-367v133h367v407h137v-407h367v-133zM932 0h-871v135h871v-135z" />
    <glyph glyph-name="two.superior" unicode="&#xb2;" horiz-adv-x="512" 
d="M471 762h-422v59q0 68 19 109t65 84l111 102q31 29 38 42.5t7 39.5v68q0 24 -8 32q-7 11 -27 11q-37 0 -37 -43v-105h-176v68q0 41 8.5 72t30 59t65.5 42.5t109 14.5q64 0 107.5 -15t65 -42.5t30 -57.5t8.5 -69v-23q-3 -44 -20 -81t-31 -52t-37 -35l-109 -100
q-4 -4 -10 -9.5t-9 -8t-7 -6.5t-6 -6.5t-4.5 -5.5t-3.5 -5.5t-2 -5.5t-1 -6h246v-127z" />
    <glyph glyph-name="three.superior" unicode="&#xb3;" horiz-adv-x="512" 
d="M469 938q0 -42 -8.5 -73t-30 -59t-65.5 -43t-109 -15q-64 0 -108 14.5t-66 42.5t-30.5 59t-8.5 72v55h176v-94q0 -43 37 -43t37 43v102q0 11 -2.5 17.5t-13.5 12t-31 5.5h-64v111h4h4h4h4h4h4h4h5h4h4h5h5h4h9q29 0 38 8.5t9 26.5v88q0 41 -37 41q-35 0 -35 -41v-78h-176
v39q0 88 45 138t168 50q121 0 166 -50.5t45 -137.5v-12q0 -58 -29 -91.5t-90 -33.5h-24v-5h22q63 0 92 -34t29 -90v-25z" />
    <glyph glyph-name="acute" unicode="&#xb4;" 
d="M686 1425l-102 -245h-246l51 245h297z" />
    <glyph glyph-name="mu" unicode="&#xb5;" horiz-adv-x="802" 
d="M733 0h-282l-11 102q-16 -25 -55 -55t-68 -37v-286h-276v1351h297v-751q0 -27 1.5 -41t13 -27.5t34.5 -13.5q17 0 29.5 8.5t15.5 17.5l4 8v799h297v-1075z" />
    <glyph glyph-name="paragraph" unicode="&#xb6;" 
d="M950 1280h-119v-1556h-116v1556h-109v-1556h-117v716h-47q-201 0 -284.5 74.5t-83.5 233.5v337q0 159 83.5 233.5t284.5 74.5h508v-113z" />
    <glyph glyph-name="periodcentered" unicode="&#xb7;" horiz-adv-x="409" 
d="M328 541h-277v307h277v-307z" />
    <glyph glyph-name="cedilla" unicode="&#xb8;" 
d="M662 0l-62 -225h-238l62 225h238z" />
    <glyph glyph-name="one.superior" unicode="&#xb9;" horiz-adv-x="512" 
d="M385 762h-178v452h-80v117q54 1 93 25t42 53h123v-647z" />
    <glyph glyph-name="ordmasculine" unicode="&#xba;" horiz-adv-x="559" 
d="M514 952q0 -95 -50.5 -143.5t-182.5 -48.5t-184 48.5t-52 143.5v273q0 95 51 142.5t183 47.5t183.5 -47.5t51.5 -142.5v-273zM514 616h-469v91h469v-91zM319 942v297q0 19 -1.5 27.5t-10 15t-26.5 6.5q-19 0 -27.5 -6.5t-10 -15t-1.5 -27.5v-297q0 -19 1.5 -27.5t9.5 -15
t26 -6.5q26 0 33 11t7 38z" />
    <glyph glyph-name="guillemotright" unicode="&#xbb;" horiz-adv-x="643" 
d="M604 358l-248 -245v286l115 144v41l-115 143v287l248 -246v-410zM285 358l-246 -245v286l115 144v41l-115 143v287l246 -246v-410z" />
    <glyph glyph-name="onequarter" unicode="&#xbc;" 
d="M313 762h-178v452h-82v117q54 1 93 25t42 53h125v-647zM766 1393l-492 -1393h-155l491 1393h156zM971 123h-64v-123h-176v123h-244v121l162 397h256v-391h66v-127zM739 555h-4l-26 -96l-78 -211h102v213z" />
    <glyph glyph-name="onehalf" unicode="&#xbd;" 
d="M324 762h-179v452h-79v117q54 1 93 25t42 53h123v-647zM776 1393l-491 -1393h-154l492 1393h153zM958 0h-421v59q0 68 19 109t65 84l110 102q31 29 38 42.5t7 39.5v68q0 25 -8 33q-7 10 -27 10q-36 0 -36 -43v-105h-177v68q0 41 8.5 72t30 59t65.5 42.5t109 14.5
q64 0 108 -15t66 -42.5t30.5 -57.5t8.5 -69q0 -16 -2 -22q-3 -44 -20 -81t-31 -52t-37 -35l-108 -101q-4 -4 -10 -9.5t-9 -8t-7 -6.5t-6 -6.5t-4.5 -5.5t-3.5 -5.5t-2 -5.5t-1 -6h245v-127z" />
    <glyph glyph-name="threequarters" unicode="&#xbe;" horiz-adv-x="1146" 
d="M475 938q0 -42 -8.5 -73t-30 -59t-65.5 -43t-109 -15q-64 0 -108 14.5t-66.5 42.5t-31.5 59t-9 72v55h176v-94q0 -43 37 -43q39 0 39 43v102q0 11 -2.5 17.5t-13.5 12t-31 5.5h-66v111h4h4h4h4h5h4h4h5h4h5h4h5h6h6q30 0 39.5 9t9.5 26v88q0 41 -37 41q-16 0 -24.5 -7.5
t-9.5 -14t-1 -19.5v-78h-178v39q0 88 45 138t168 50q121 0 167 -50.5t46 -137.5v-12q0 -58 -29 -91.5t-90 -33.5h-26v-5h22q63 0 93 -34t30 -90v-25zM895 1393l-492 -1393h-155l491 1393h156zM1100 123h-64v-123h-178v123h-242v121l160 397h256v-391h68v-127zM866 555h-2
l-28 -96l-76 -211h102v213z" />
    <glyph glyph-name="questiondown" unicode="&#xbf;" horiz-adv-x="825" 
d="M600 786h-289v287h289v-287zM774 20q0 -71 -7 -121.5t-29.5 -99t-61.5 -78t-104.5 -47.5t-157.5 -18q-77 0 -135.5 11.5t-98 35t-65.5 54t-39.5 75t-19 89.5t-5.5 106q0 23 2 44t3.5 38t7 35.5t8 30t10.5 28.5t11.5 24t13.5 23.5t12.5 21t14 21.5t13.5 20l107 154
q21 28 31 45.5t19 48.5t9 70v63h285v-51q0 -139 -76 -246l-112 -153q-29 -37 -42.5 -70.5t-13.5 -83.5v-147q0 -27 2 -41t15.5 -27.5t40.5 -13.5q21 0 34 6t18 19.5t6 24t1 30.5v262h303v-183z" />
    <glyph glyph-name="Agrave" unicode="&#xc0;" horiz-adv-x="831" 
d="M825 0h-321l-23 293h-145l-23 -293h-307l187 1393h446zM461 549l-39 475l-8 123h-11q-2 -62 -8 -123l-41 -475h107zM561 1497h-246l-102 246h297z" />
    <glyph glyph-name="Aacute" unicode="&#xc1;" horiz-adv-x="831" 
d="M825 0h-321l-23 293h-145l-23 -293h-307l187 1393h446zM461 549l-39 475l-8 123h-11q-2 -62 -8 -123l-41 -475h107zM655 1743l-102 -246h-246l51 246h297z" />
    <glyph glyph-name="Acircumflex" unicode="&#xc2;" horiz-adv-x="831" 
d="M825 0h-321l-23 293h-145l-23 -293h-307l187 1393h446zM461 549l-39 475l-8 123h-11q-2 -62 -8 -123l-41 -475h107zM672 1497h-203l-47 131h-10l-47 -131h-205l112 246h285z" />
    <glyph glyph-name="Atilde" unicode="&#xc3;" horiz-adv-x="831" 
d="M825 0h-321l-23 293h-145l-23 -293h-307l187 1393h446zM461 549l-39 475l-8 123h-11q-2 -62 -8 -123l-41 -475h107zM696 1712q0 -111 -45.5 -164t-120.5 -53q-51 0 -113.5 29.5t-82.5 29.5q-28 0 -40.5 -10.5t-12.5 -38.5h-113v29q0 111 45.5 164t120.5 53
q51 0 113.5 -29.5t82.5 -29.5q28 0 41 10.5t13 38.5h112v-29z" />
    <glyph glyph-name="Adieresis" unicode="&#xc4;" horiz-adv-x="831" 
d="M825 0h-321l-23 293h-145l-23 -293h-307l187 1393h446zM461 549l-39 475l-8 123h-11q-2 -62 -8 -123l-41 -475h107zM651 1497h-196v246h196v-246zM379 1497h-195v246h195v-246z" />
    <glyph glyph-name="Aring" unicode="&#xc5;" horiz-adv-x="831" 
d="M825 0h-321l-23 293h-145l-23 -293h-307l187 1393h446zM461 549l-39 475l-8 123h-11q-2 -62 -8 -123l-41 -475h107zM590 1665q0 -69 -50 -118.5t-120 -49.5t-120 49.5t-50 118.5q0 71 50 120.5t120 49.5t120 -49.5t50 -120.5zM481 1665q0 29 -17.5 47.5t-43.5 18.5
q-27 0 -44.5 -18.5t-17.5 -47.5q0 -27 18 -45t44 -18t43.5 17.5t17.5 45.5z" />
    <glyph glyph-name="AE" unicode="&#xc6;" horiz-adv-x="1165" 
d="M1143 0h-602v293h-166l-53 -293h-316l318 1393h819v-234h-285v-319h272v-246h-272v-352h285v-242zM541 549v618h-6l-113 -618h119z" />
    <glyph glyph-name="Ccedilla" unicode="&#xc7;" horiz-adv-x="841" 
d="M805 350q0 -81 -11.5 -139t-42 -108.5t-88 -80t-143.5 -40.5l-55 -207h-238l60 211q-75 14 -126 46t-77 81.5t-36.5 105t-10.5 131.5v690q0 73 9 126t33.5 102.5t67 80t111.5 48.5t164 18t163.5 -18t110.5 -48.5t66.5 -80t33.5 -102.5t9 -126v-161h-316v243
q0 37 -13.5 58.5t-53.5 21.5t-54 -21.5t-14 -58.5v-848q0 -37 14 -58t54 -21t53.5 21t13.5 58v281h316v-205z" />
    <glyph glyph-name="Egrave" unicode="&#xc8;" horiz-adv-x="667" 
d="M645 0h-602v1393h602v-234h-285v-319h273v-246h-273v-352h285v-242zM479 1497h-246l-102 246h297z" />
    <glyph glyph-name="Eacute" unicode="&#xc9;" horiz-adv-x="667" 
d="M645 0h-602v1393h602v-234h-285v-319h273v-246h-273v-352h285v-242zM549 1743l-103 -246h-245l51 246h297z" />
    <glyph glyph-name="Ecircumflex" unicode="&#xca;" horiz-adv-x="667" 
d="M645 0h-602v1393h602v-234h-285v-319h273v-246h-273v-352h285v-242zM598 1497h-203l-47 131h-10l-47 -131h-205l113 246h284z" />
    <glyph glyph-name="Edieresis" unicode="&#xcb;" horiz-adv-x="667" 
d="M645 0h-602v1393h602v-234h-285v-319h273v-246h-273v-352h285v-242zM578 1497h-197v246h197v-246zM305 1497h-194v246h194v-246z" />
    <glyph glyph-name="Igrave" unicode="&#xcc;" horiz-adv-x="403" 
d="M360 0h-317v1393h317v-1393zM336 1497h-246l-102 246h297z" />
    <glyph glyph-name="Iacute" unicode="&#xcd;" horiz-adv-x="403" 
d="M360 0h-317v1393h317v-1393zM424 1743l-102 -246h-246l51 246h297z" />
    <glyph glyph-name="Icircumflex" unicode="&#xce;" horiz-adv-x="403" 
d="M360 0h-317v1393h317v-1393zM461 1497h-203l-47 131h-10l-47 -131h-205l112 246h285z" />
    <glyph glyph-name="Idieresis" unicode="&#xcf;" horiz-adv-x="403" 
d="M360 0h-317v1393h317v-1393zM440 1497h-196v246h196v-246zM168 1497h-195v246h195v-246z" />
    <glyph glyph-name="Eth" unicode="&#xd0;" horiz-adv-x="870" 
d="M834 338q0 -174 -86.5 -256t-290.5 -82h-398v602h-51v229h51v562h408q202 0 284.5 -77.5t82.5 -250.5v-727zM516 307v785q0 75 -76 75h-63v-336h72v-229h-72v-371h63q76 0 76 76z" />
    <glyph glyph-name="Ntilde" unicode="&#xd1;" horiz-adv-x="856" 
d="M813 0h-305l-160 649q-9 36 -18.5 87.5t-15.5 84.5l-5 33h-8q8 -123 8 -205v-649h-266v1393h326l139 -611l39 -202h8q-8 122 -8 204v609h266v-1393zM700 1712q0 -111 -45 -164t-120 -53q-51 0 -114 29.5t-83 29.5q-28 0 -40.5 -10.5t-12.5 -38.5h-113v29q0 111 45.5 164
t120.5 53q51 0 114 -29.5t83 -29.5q28 0 40.5 10.5t12.5 38.5h112v-29z" />
    <glyph glyph-name="Ograve" unicode="&#xd2;" horiz-adv-x="843" 
d="M807 350q0 -73 -9 -126t-33.5 -102.5t-67 -80t-112 -48.5t-165.5 -18t-165.5 18t-112 48.5t-67 80t-33.5 102.5t-9 126v690q0 73 9 126t33.5 102.5t67 80t112 48.5t165.5 18t165.5 -18t112 -48.5t67 -80t33.5 -102.5t9 -126v-690zM489 274v848q0 37 -14 58.5t-55 21.5
q-42 0 -56 -21.5t-14 -58.5v-848q0 -37 14 -58t56 -21q41 0 55 21t14 58zM578 1497h-246l-103 246h297z" />
    <glyph glyph-name="Oacute" unicode="&#xd3;" horiz-adv-x="843" 
d="M807 350q0 -73 -9 -126t-33.5 -102.5t-67 -80t-112 -48.5t-165.5 -18t-165.5 18t-112 48.5t-67 80t-33.5 102.5t-9 126v690q0 73 9 126t33.5 102.5t67 80t112 48.5t165.5 18t165.5 -18t112 -48.5t67 -80t33.5 -102.5t9 -126v-690zM489 274v848q0 37 -14 58.5t-55 21.5
q-42 0 -56 -21.5t-14 -58.5v-848q0 -37 14 -58t56 -21q41 0 55 21t14 58zM657 1743l-102 -246h-246l51 246h297z" />
    <glyph glyph-name="Ocircumflex" unicode="&#xd4;" horiz-adv-x="843" 
d="M807 350q0 -73 -9 -126t-33.5 -102.5t-67 -80t-112 -48.5t-165.5 -18t-165.5 18t-112 48.5t-67 80t-33.5 102.5t-9 126v690q0 73 9 126t33.5 102.5t67 80t112 48.5t165.5 18t165.5 -18t112 -48.5t67 -80t33.5 -102.5t9 -126v-690zM489 274v848q0 37 -14 58.5t-55 21.5
q-42 0 -56 -21.5t-14 -58.5v-848q0 -37 14 -58t56 -21q41 0 55 21t14 58zM666 1497h-203l-47 131h-10l-48 -131h-204l112 246h285z" />
    <glyph glyph-name="Otilde" unicode="&#xd5;" horiz-adv-x="843" 
d="M807 350q0 -73 -9 -126t-33.5 -102.5t-67 -80t-112 -48.5t-165.5 -18t-165.5 18t-112 48.5t-67 80t-33.5 102.5t-9 126v690q0 73 9 126t33.5 102.5t67 80t112 48.5t165.5 18t165.5 -18t112 -48.5t67 -80t33.5 -102.5t9 -126v-690zM489 274v848q0 37 -14 58.5t-55 21.5
q-42 0 -56 -21.5t-14 -58.5v-848q0 -37 14 -58t56 -21q41 0 55 21t14 58zM707 1712q0 -111 -45.5 -164t-120.5 -53q-51 0 -114 29.5t-83 29.5q-28 0 -40.5 -10.5t-12.5 -38.5h-113v29q0 111 45.5 164t120.5 53q51 0 114 -29.5t83 -29.5q28 0 40.5 10.5t12.5 38.5h113v-29z
" />
    <glyph glyph-name="Odieresis" unicode="&#xd6;" horiz-adv-x="843" 
d="M807 350q0 -73 -9 -126t-33.5 -102.5t-67 -80t-112 -48.5t-165.5 -18t-165.5 18t-112 48.5t-67 80t-33.5 102.5t-9 126v690q0 73 9 126t33.5 102.5t67 80t112 48.5t165.5 18t165.5 -18t112 -48.5t67 -80t33.5 -102.5t9 -126v-690zM489 274v848q0 37 -14 58.5t-55 21.5
q-42 0 -56 -21.5t-14 -58.5v-848q0 -37 14 -58t56 -21q41 0 55 21t14 58zM655 1497h-196v246h196v-246zM383 1497h-195v246h195v-246z" />
    <glyph glyph-name="multiply" unicode="&#xd7;" horiz-adv-x="993" 
d="M870 336l-92 -92l-282 278l-279 -278l-92 92l278 280l-280 281l92 92l281 -278l280 278l92 -92l-278 -281z" />
    <glyph glyph-name="Oslash" unicode="&#xd8;" horiz-adv-x="843" 
d="M840 1335l-58 -112q25 -74 25 -185v-688q0 -73 -9 -126t-33.5 -102.5t-67 -80t-112 -48.5t-165.5 -18q-152 0 -240 45l-33 -61l-153 72l65 129q-26 61 -26 190v690q0 73 9 126t33.5 102.5t67 80t112 48.5t165.5 18q156 0 246 -49l20 41zM489 1036v86q0 37 -14 58.5
t-55 21.5q-42 0 -56 -21.5t-14 -58.5v-405zM489 274v385l-139 -319v-66q0 -37 14 -58t56 -21q41 0 55 21t14 58z" />
    <glyph glyph-name="Ugrave" unicode="&#xd9;" horiz-adv-x="839" 
d="M803 340q0 -71 -9.5 -124.5t-35 -100.5t-68 -76.5t-110.5 -46.5t-160 -17t-160 17t-110.5 46.5t-68 76.5t-35 100.5t-9.5 124.5v1053h317v-1098q0 -37 13.5 -58.5t52.5 -21.5t52 21.5t13 58.5v1098h318v-1053zM571 1497h-245l-103 246h297z" />
    <glyph glyph-name="Uacute" unicode="&#xda;" horiz-adv-x="839" 
d="M803 340q0 -71 -9.5 -124.5t-35 -100.5t-68 -76.5t-110.5 -46.5t-160 -17t-160 17t-110.5 46.5t-68 76.5t-35 100.5t-9.5 124.5v1053h317v-1098q0 -37 13.5 -58.5t52.5 -21.5t52 21.5t13 58.5v1098h318v-1053zM657 1743l-102 -246h-246l51 246h297z" />
    <glyph glyph-name="Ucircumflex" unicode="&#xdb;" horiz-adv-x="839" 
d="M803 340q0 -71 -9.5 -124.5t-35 -100.5t-68 -76.5t-110.5 -46.5t-160 -17t-160 17t-110.5 46.5t-68 76.5t-35 100.5t-9.5 124.5v1053h317v-1098q0 -37 13.5 -58.5t52.5 -21.5t52 21.5t13 58.5v1098h318v-1053zM672 1497h-203l-47 131h-10l-47 -131h-205l112 246h285z" />
    <glyph glyph-name="Udieresis" unicode="&#xdc;" horiz-adv-x="839" 
d="M803 340q0 -71 -9.5 -124.5t-35 -100.5t-68 -76.5t-110.5 -46.5t-160 -17t-160 17t-110.5 46.5t-68 76.5t-35 100.5t-9.5 124.5v1053h317v-1098q0 -37 13.5 -58.5t52.5 -21.5t52 21.5t13 58.5v1098h318v-1053zM653 1497h-196v246h196v-246zM381 1497h-195v246h195v-246z
" />
    <glyph glyph-name="Yacute" unicode="&#xdd;" horiz-adv-x="813" 
d="M807 1393l-242 -901v-492h-317v492l-242 901h328l65 -441l11 -143h6q4 102 10 143l66 441h315zM637 1743l-102 -246h-246l51 246h297z" />
    <glyph glyph-name="Thorn" unicode="&#xde;" horiz-adv-x="847" 
d="M811 563q0 -159 -83 -233t-284 -74h-88v-256h-317v1393h317v-195h88q201 0 284 -74t83 -233v-328zM496 565v332q0 76 -76 76h-66v-484h66q76 0 76 76z" />
    <glyph glyph-name="germandbls" unicode="&#xdf;" horiz-adv-x="806" 
d="M797 297q0 -145 -75 -221t-245 -76h-47v213h25q45 0 45 76v289q0 61 -43 61h-37v213h24q41 0 41 63v232q0 20 -0.5 29t-3 22t-7.5 18.5t-15 10t-25 4.5q-19 0 -30.5 -5t-17 -17.5t-6.5 -24.5t-1 -35v-1425h-297v1136h-72v144l72 71v39q0 70 15.5 121.5t52 93t102.5 63
t162 21.5q177 0 259.5 -69.5t82.5 -229.5v-121q0 -100 -37 -160t-131 -79l-10 -2v-7l20 -2q97 -10 148 -72.5t51 -158.5v-215z" />
    <glyph glyph-name="agrave" unicode="&#xe0;" horiz-adv-x="800" 
d="M764 0h-305q-21 61 -21 102q-17 -26 -30 -42.5t-38.5 -39t-60.5 -34t-78 -11.5q-93 0 -143.5 62.5t-50.5 177.5v143q0 115 38 168t146 88l215 72v158q0 40 -8 55.5t-41 15.5q-31 0 -40 -15.5t-9 -53.5v-150h-285v107q0 145 76 220t264 75t264 -75t76 -220v-547
q0 -167 31 -215v-41zM438 242v262l-53 -21q-31 -12 -41 -29.5t-10 -62.5v-119q0 -36 10 -53.5t41 -17.5q20 0 33.5 10.5t16.5 20.5zM559 1180h-246l-102 245h297z" />
    <glyph glyph-name="aacute" unicode="&#xe1;" horiz-adv-x="800" 
d="M764 0h-305q-21 61 -21 102q-17 -26 -30 -42.5t-38.5 -39t-60.5 -34t-78 -11.5q-93 0 -143.5 62.5t-50.5 177.5v143q0 115 38 168t146 88l215 72v158q0 40 -8 55.5t-41 15.5q-31 0 -40 -15.5t-9 -53.5v-150h-285v107q0 145 76 220t264 75t264 -75t76 -220v-547
q0 -167 31 -215v-41zM438 242v262l-53 -21q-31 -12 -41 -29.5t-10 -62.5v-119q0 -36 10 -53.5t41 -17.5q20 0 33.5 10.5t16.5 20.5zM653 1425l-102 -245h-246l51 245h297z" />
    <glyph glyph-name="acircumflex" unicode="&#xe2;" horiz-adv-x="800" 
d="M764 0h-305q-21 61 -21 102q-17 -26 -30 -42.5t-38.5 -39t-60.5 -34t-78 -11.5q-93 0 -143.5 62.5t-50.5 177.5v143q0 115 38 168t146 88l215 72v158q0 40 -8 55.5t-41 15.5q-31 0 -40 -15.5t-9 -53.5v-150h-285v107q0 145 76 220t264 75t264 -75t76 -220v-547
q0 -167 31 -215v-41zM438 242v262l-53 -21q-31 -12 -41 -29.5t-10 -62.5v-119q0 -36 10 -53.5t41 -17.5q20 0 33.5 10.5t16.5 20.5zM670 1180h-203l-47 131h-10l-48 -131h-204l112 245h285z" />
    <glyph glyph-name="atilde" unicode="&#xe3;" horiz-adv-x="800" 
d="M764 0h-305q-21 61 -21 102q-17 -26 -30 -42.5t-38.5 -39t-60.5 -34t-78 -11.5q-93 0 -143.5 62.5t-50.5 177.5v143q0 115 38 168t146 88l215 72v158q0 40 -8 55.5t-41 15.5q-31 0 -40 -15.5t-9 -53.5v-150h-285v107q0 145 76 220t264 75t264 -75t76 -220v-547
q0 -167 31 -215v-41zM438 242v262l-53 -21q-31 -12 -41 -29.5t-10 -62.5v-119q0 -36 10 -53.5t41 -17.5q20 0 33.5 10.5t16.5 20.5zM676 1391q0 -111 -45.5 -164t-120.5 -53q-51 0 -114 29.5t-83 29.5q-28 0 -40.5 -10.5t-12.5 -38.5h-113v28q0 111 45.5 164.5t120.5 53.5
q51 0 114 -30t83 -30q28 0 40.5 10.5t12.5 38.5h113v-28z" />
    <glyph glyph-name="adieresis" unicode="&#xe4;" horiz-adv-x="800" 
d="M764 0h-305q-21 61 -21 102q-17 -26 -30 -42.5t-38.5 -39t-60.5 -34t-78 -11.5q-93 0 -143.5 62.5t-50.5 177.5v143q0 115 38 168t146 88l215 72v158q0 40 -8 55.5t-41 15.5q-31 0 -40 -15.5t-9 -53.5v-150h-285v107q0 145 76 220t264 75t264 -75t76 -220v-547
q0 -167 31 -215v-41zM438 242v262l-53 -21q-31 -12 -41 -29.5t-10 -62.5v-119q0 -36 10 -53.5t41 -17.5q20 0 33.5 10.5t16.5 20.5zM659 1180h-196v245h196v-245zM387 1180h-194v245h194v-245z" />
    <glyph glyph-name="aring" unicode="&#xe5;" horiz-adv-x="800" 
d="M764 0h-305q-21 61 -21 102q-17 -26 -30 -42.5t-38.5 -39t-60.5 -34t-78 -11.5q-93 0 -143.5 62.5t-50.5 177.5v143q0 115 38 168t146 88l215 72v158q0 40 -8 55.5t-41 15.5q-31 0 -40 -15.5t-9 -53.5v-150h-285v107q0 145 76 220t264 75t264 -75t76 -220v-547
q0 -167 31 -215v-41zM438 242v262l-53 -21q-31 -12 -41 -29.5t-10 -62.5v-119q0 -36 10 -53.5t41 -17.5q20 0 33.5 10.5t16.5 20.5zM580 1348q0 -69 -50 -118.5t-120 -49.5t-120 49.5t-50 118.5q0 70 50 120t120 50t120 -50t50 -120zM471 1348q0 29 -17 47t-44 18t-44.5 -18
t-17.5 -47q0 -28 18 -46t44 -18t43.5 18t17.5 46z" />
    <glyph glyph-name="ae" unicode="&#xe6;" horiz-adv-x="1159" 
d="M1122 279q0 -72 -15.5 -125t-53 -95t-106 -63t-167.5 -21q-114 0 -187.5 28t-117.5 103q-34 -37 -52 -54t-48.5 -38.5t-65 -30t-78.5 -8.5q-93 0 -143.5 62.5t-50.5 177.5v143q0 115 38 168t146 88l215 72v158q0 40 -8 55.5t-41 15.5q-31 0 -40 -15.5t-9 -53.5v-150h-285
v107q0 145 76 220t264 75q131 0 197 -33q24 14 77 23.5t113 9.5q100 0 168 -21t105.5 -62.5t53 -94t15.5 -125.5v-314h-389v-225q0 -31 2 -46.5t14 -27.5t35 -12q34 0 43 19.5t9 64.5v145h286v-120zM838 676v153q0 44 -10 64t-44 20t-43.5 -19t-9.5 -63v-155h107zM438 242
v262l-53 -21q-31 -12 -41 -29.5t-10 -62.5v-119q0 -36 10 -53.5t41 -17.5q20 0 33.5 10.5t16.5 20.5z" />
    <glyph glyph-name="ccedilla" unicode="&#xe7;" horiz-adv-x="759" 
d="M723 279q0 -130 -54 -204t-192 -93l-55 -207h-238l60 213q-114 26 -160.5 99t-46.5 192v514q0 73 15.5 126t53 95t106.5 63t169 21t168.5 -21t105.5 -63t52.5 -95t15.5 -126v-148h-287v184q0 44 -9.5 64t-41.5 20t-41.5 -19t-9.5 -63v-577q0 -44 9.5 -64t41.5 -20
t41.5 19t9.5 63v209h287v-182z" />
    <glyph glyph-name="egrave" unicode="&#xe8;" horiz-adv-x="759" 
d="M723 281q0 -73 -15.5 -126t-53 -95t-105.5 -63.5t-168 -21.5t-168.5 21t-106 62.5t-53.5 94.5t-16 126v514q0 73 15.5 126t53 95t106.5 63t169 21t168.5 -21t105.5 -63t52.5 -95t15.5 -126v-312h-389v-225q0 -31 2 -46.5t14 -27.5t35 -12q34 0 42.5 19.5t8.5 64.5v145
h287v-118zM438 676v153q0 44 -9.5 64t-43.5 20t-43.5 -19t-9.5 -63v-155h106zM532 1180h-245l-103 245h297z" />
    <glyph glyph-name="eacute" unicode="&#xe9;" horiz-adv-x="759" 
d="M723 281q0 -73 -15.5 -126t-53 -95t-105.5 -63.5t-168 -21.5t-168.5 21t-106 62.5t-53.5 94.5t-16 126v514q0 73 15.5 126t53 95t106.5 63t169 21t168.5 -21t105.5 -63t52.5 -95t15.5 -126v-312h-389v-225q0 -31 2 -46.5t14 -27.5t35 -12q34 0 42.5 19.5t8.5 64.5v145
h287v-118zM438 676v153q0 44 -9.5 64t-43.5 20t-43.5 -19t-9.5 -63v-155h106zM612 1425l-102 -245h-246l51 245h297z" />
    <glyph glyph-name="ecircumflex" unicode="&#xea;" horiz-adv-x="759" 
d="M723 281q0 -73 -15.5 -126t-53 -95t-105.5 -63.5t-168 -21.5t-168.5 21t-106 62.5t-53.5 94.5t-16 126v514q0 73 15.5 126t53 95t106.5 63t169 21t168.5 -21t105.5 -63t52.5 -95t15.5 -126v-312h-389v-225q0 -31 2 -46.5t14 -27.5t35 -12q34 0 42.5 19.5t8.5 64.5v145
h287v-118zM438 676v153q0 44 -9.5 64t-43.5 20t-43.5 -19t-9.5 -63v-155h106zM641 1180h-203l-47 131h-10l-47 -131h-205l113 245h284z" />
    <glyph glyph-name="edieresis" unicode="&#xeb;" horiz-adv-x="759" 
d="M723 281q0 -73 -15.5 -126t-53 -95t-105.5 -63.5t-168 -21.5t-168.5 21t-106 62.5t-53.5 94.5t-16 126v514q0 73 15.5 126t53 95t106.5 63t169 21t168.5 -21t105.5 -63t52.5 -95t15.5 -126v-312h-389v-225q0 -31 2 -46.5t14 -27.5t35 -12q34 0 42.5 19.5t8.5 64.5v145
h287v-118zM438 676v153q0 44 -9.5 64t-43.5 20t-43.5 -19t-9.5 -63v-155h106zM614 1180h-196v245h196v-245zM342 1180h-195v245h195v-245z" />
    <glyph glyph-name="igrave" unicode="&#xec;" horiz-adv-x="370" 
d="M334 0h-297v1075h297v-1075zM311 1180h-245l-103 245h297z" />
    <glyph glyph-name="iacute" unicode="&#xed;" horiz-adv-x="370" 
d="M334 0h-297v1075h297v-1075zM403 1425l-102 -245h-246l51 245h297z" />
    <glyph glyph-name="icircumflex" unicode="&#xee;" horiz-adv-x="370" 
d="M334 0h-297v1075h297v-1075zM446 1180h-202l-47 131h-11l-47 -131h-205l113 245h285z" />
    <glyph glyph-name="idieresis" unicode="&#xef;" horiz-adv-x="370" 
d="M334 0h-297v1075h297v-1075zM424 1180h-197v245h197v-245zM152 1180h-195v245h195v-245z" />
    <glyph glyph-name="eth" unicode="&#xf0;" horiz-adv-x="770" 
d="M733 281q0 -73 -16.5 -126t-54.5 -95t-107.5 -63.5t-169.5 -21.5q-101 0 -170.5 21t-107.5 62.5t-54 94.5t-16 126v501q0 60 7.5 104t30.5 86.5t62 69t104.5 42.5t155.5 16q-42 67 -100 123l-172 -97l-47 88l141 78q-65 57 -100 80l205 111q52 -25 112 -70l160 88l47 -88
l-127 -70q94 -94 146 -196q71 -146 71 -359v-505zM436 252v577q0 44 -9.5 64t-41.5 20t-41.5 -19t-9.5 -63v-577q0 -44 9.5 -64t41.5 -20t41.5 19t9.5 63z" />
    <glyph glyph-name="ntilde" unicode="&#xf1;" horiz-adv-x="774" 
d="M735 0h-297v760q0 26 -2 40.5t-14 28t-35 13.5q-17 0 -30 -11t-17 -21l-4 -11v-799h-297v1075h287l10 -133q59 156 205 156q194 0 194 -246v-852zM659 1391q0 -111 -45 -164t-120 -53q-51 0 -114 29.5t-83 29.5q-28 0 -40.5 -10.5t-12.5 -38.5h-113v28q0 111 45.5 164.5
t120.5 53.5q51 0 114 -30t83 -30q28 0 40.5 10.5t12.5 38.5h112v-28z" />
    <glyph glyph-name="ograve" unicode="&#xf2;" horiz-adv-x="770" 
d="M733 281q0 -73 -16 -126t-54 -95t-107.5 -63.5t-170.5 -21.5t-170.5 21t-107.5 62.5t-54 94.5t-16 126v514q0 73 16 126t54 95t107.5 63t170.5 21t170.5 -21t107.5 -63t54 -95t16 -126v-512zM436 252v577q0 44 -9.5 64t-41.5 20t-41.5 -19t-9.5 -63v-577q0 -44 9.5 -64
t41.5 -20t41.5 19t9.5 63zM539 1180h-246l-103 245h297z" />
    <glyph glyph-name="oacute" unicode="&#xf3;" horiz-adv-x="770" 
d="M733 281q0 -73 -16 -126t-54 -95t-107.5 -63.5t-170.5 -21.5t-170.5 21t-107.5 62.5t-54 94.5t-16 126v514q0 73 16 126t54 95t107.5 63t170.5 21t170.5 -21t107.5 -63t54 -95t16 -126v-512zM436 252v577q0 44 -9.5 64t-41.5 20t-41.5 -19t-9.5 -63v-577q0 -44 9.5 -64
t41.5 -20t41.5 19t9.5 63zM602 1425l-102 -245h-246l51 245h297z" />
    <glyph glyph-name="ocircumflex" unicode="&#xf4;" horiz-adv-x="770" 
d="M733 281q0 -73 -16 -126t-54 -95t-107.5 -63.5t-170.5 -21.5t-170.5 21t-107.5 62.5t-54 94.5t-16 126v514q0 73 16 126t54 95t107.5 63t170.5 21t170.5 -21t107.5 -63t54 -95t16 -126v-512zM436 252v577q0 44 -9.5 64t-41.5 20t-41.5 -19t-9.5 -63v-577q0 -44 9.5 -64
t41.5 -20t41.5 19t9.5 63zM651 1180h-202l-48 131h-10l-47 -131h-205l113 245h285z" />
    <glyph glyph-name="otilde" unicode="&#xf5;" horiz-adv-x="770" 
d="M733 281q0 -73 -16 -126t-54 -95t-107.5 -63.5t-170.5 -21.5t-170.5 21t-107.5 62.5t-54 94.5t-16 126v514q0 73 16 126t54 95t107.5 63t170.5 21t170.5 -21t107.5 -63t54 -95t16 -126v-512zM436 252v577q0 44 -9.5 64t-41.5 20t-41.5 -19t-9.5 -63v-577q0 -44 9.5 -64
t41.5 -20t41.5 19t9.5 63zM659 1391q0 -111 -45 -164t-120 -53q-51 0 -114 29.5t-83 29.5q-28 0 -40.5 -10.5t-12.5 -38.5h-113v28q0 111 45.5 164.5t120.5 53.5q51 0 114 -30t83 -30q28 0 40.5 10.5t12.5 38.5h112v-28z" />
    <glyph glyph-name="odieresis" unicode="&#xf6;" horiz-adv-x="770" 
d="M733 281q0 -73 -16 -126t-54 -95t-107.5 -63.5t-170.5 -21.5t-170.5 21t-107.5 62.5t-54 94.5t-16 126v514q0 73 16 126t54 95t107.5 63t170.5 21t170.5 -21t107.5 -63t54 -95t16 -126v-512zM436 252v577q0 44 -9.5 64t-41.5 20t-41.5 -19t-9.5 -63v-577q0 -44 9.5 -64
t41.5 -20t41.5 19t9.5 63zM625 1180h-197v245h197v-245zM352 1180h-194v245h194v-245z" />
    <glyph glyph-name="divide" unicode="&#xf7;" horiz-adv-x="993" 
d="M612 881q0 -50 -33.5 -83.5t-82.5 -33.5q-48 0 -81.5 34t-33.5 83t33.5 82.5t81.5 33.5q50 0 83 -33.5t33 -82.5zM932 549h-871v133h871v-133zM612 352q0 -50 -33 -83t-83 -33q-48 0 -81.5 33.5t-33.5 82.5t33.5 83t81.5 34q49 0 82.5 -33.5t33.5 -83.5z" />
    <glyph glyph-name="oslash" unicode="&#xf8;" horiz-adv-x="770" 
d="M774 1014l-55 -88q18 -59 18 -133v-512q0 -73 -16 -126t-54 -95t-107.5 -63.5t-170.5 -21.5q-160 0 -242 54l-34 -54l-113 82l57 90q-16 52 -16 132v514q0 73 16 126t54 95t107.5 63t170.5 21q157 0 242 -54l31 52zM440 766v63q0 45 -9 64.5t-42 19.5q-32 0 -41.5 -19
t-9.5 -63v-266zM440 252v258l-102 -203v-53q0 -45 9 -64.5t42 -19.5q32 0 41.5 19t9.5 63z" />
    <glyph glyph-name="ugrave" unicode="&#xf9;" horiz-adv-x="768" 
d="M729 0h-283l-10 102q-3 -5 -8.5 -13.5t-25 -30.5t-41.5 -39t-57.5 -30.5t-72.5 -13.5q-100 0 -147 62.5t-47 193.5v844h297v-751q0 -27 1.5 -41t13 -27.5t34.5 -13.5q17 0 29.5 8.5t15.5 17.5l4 8v799h297v-1075zM532 1180h-245l-103 245h297z" />
    <glyph glyph-name="uacute" unicode="&#xfa;" horiz-adv-x="768" 
d="M729 0h-283l-10 102q-3 -5 -8.5 -13.5t-25 -30.5t-41.5 -39t-57.5 -30.5t-72.5 -13.5q-100 0 -147 62.5t-47 193.5v844h297v-751q0 -27 1.5 -41t13 -27.5t34.5 -13.5q17 0 29.5 8.5t15.5 17.5l4 8v799h297v-1075zM608 1425l-102 -245h-246l51 245h297z" />
    <glyph glyph-name="ucircumflex" unicode="&#xfb;" horiz-adv-x="768" 
d="M729 0h-283l-10 102q-3 -5 -8.5 -13.5t-25 -30.5t-41.5 -39t-57.5 -30.5t-72.5 -13.5q-100 0 -147 62.5t-47 193.5v844h297v-751q0 -27 1.5 -41t13 -27.5t34.5 -13.5q17 0 29.5 8.5t15.5 17.5l4 8v799h297v-1075zM645 1180h-203l-47 131h-10l-47 -131h-205l113 245h284z
" />
    <glyph glyph-name="udieresis" unicode="&#xfc;" horiz-adv-x="768" 
d="M729 0h-283l-10 102q-3 -5 -8.5 -13.5t-25 -30.5t-41.5 -39t-57.5 -30.5t-72.5 -13.5q-100 0 -147 62.5t-47 193.5v844h297v-751q0 -27 1.5 -41t13 -27.5t34.5 -13.5q17 0 29.5 8.5t15.5 17.5l4 8v799h297v-1075zM623 1180h-197v245h197v-245zM350 1180h-194v245h194
v-245z" />
    <glyph glyph-name="yacute" unicode="&#xfd;" horiz-adv-x="708" 
d="M702 1075l-145 -1034q-25 -179 -85.5 -255.5t-182.5 -76.5q-62 0 -118.5 6.5t-82.5 12.5l-25 6v213q66 -17 127 -17q44 0 58.5 19t27.5 82l5 20h-115l-160 1024h285l49 -604l10 -205h8q5 123 11 205l49 604h284zM584 1425l-103 -245h-245l51 245h297z" />
    <glyph glyph-name="thorn" unicode="&#xfe;" horiz-adv-x="772" 
d="M735 231q0 -131 -47 -193.5t-147 -62.5q-123 0 -205 127v-378h-297v1669h297v-441q15 29 29 49.5t38 45.5t59 38t79 13q194 0 194 -246v-621zM438 324v436q0 26 -2 40.5t-14 28t-35 13.5q-17 0 -30 -11t-17 -21l-4 -11v-523q1 -4 4 -9.5t16.5 -15t30.5 -9.5q33 0 42 21
t9 61z" />
    <glyph glyph-name="ydieresis" unicode="&#xff;" horiz-adv-x="708" 
d="M702 1075l-145 -1034q-25 -179 -85.5 -255.5t-182.5 -76.5q-62 0 -118.5 6.5t-82.5 12.5l-25 6v213q66 -17 127 -17q44 0 58.5 19t27.5 82l5 20h-115l-160 1024h285l49 -604l10 -205h8q5 123 11 205l49 604h284zM598 1180h-197v245h197v-245zM326 1180h-195v245h195v-245
z" />
    <glyph glyph-name="dotlessi" unicode="&#x131;" horiz-adv-x="370" 
d="M334 0h-297v1075h297v-1075z" />
    <glyph glyph-name="Lslash" unicode="&#x141;" horiz-adv-x="630" 
d="M608 0h-565v535l-61 -19v246l61 18v613h317v-523l134 39v-245l-134 -39v-383h248v-242z" />
    <glyph glyph-name="lslash" unicode="&#x142;" horiz-adv-x="425" 
d="M438 666l-82 -25v-641h-297v561l-71 -24v225l71 22v609h297v-529l82 27v-225z" />
    <glyph glyph-name="OE" unicode="&#x152;" horiz-adv-x="1118" 
d="M1096 0h-484q-71 -25 -188 -25q-96 0 -165.5 18t-112 48.5t-67 80t-33.5 102.5t-9 126v690q0 73 9 126t33.5 102.5t67 80t112 48.5t165.5 18q106 0 192 -22h480v-234h-285v-319h272v-246h-272v-352h285v-242zM494 274v848q0 37 -14 58.5t-56 21.5t-56 -21.5t-14 -58.5
v-848q0 -37 14 -58t56 -21t56 21t14 58z" />
    <glyph glyph-name="oe" unicode="&#x153;" horiz-adv-x="1159" 
d="M1122 279q0 -73 -16 -126t-53.5 -94.5t-106 -62.5t-168.5 -21q-116 0 -192 39q-110 -39 -201 -39q-101 0 -170.5 21t-107.5 62.5t-54 94.5t-16 126v516q0 73 16 125.5t54 94t107.5 62.5t170.5 21q103 0 199 -35q58 35 198 35q99 0 166.5 -21t105 -62.5t53 -94.5
t15.5 -127v-312h-389v-225q0 -31 2 -46.5t14 -27.5t35 -12q34 0 43 19.5t9 64.5v145h286v-120zM838 676v153q0 44 -10 64t-44 20t-43.5 -19t-9.5 -63v-155h107zM436 256v578q0 44 -9 62.5t-42 18.5t-42 -18.5t-9 -62.5v-578q0 -44 9.5 -63t41.5 -19t41.5 19t9.5 63z" />
    <glyph glyph-name="Scaron" unicode="&#x160;" horiz-adv-x="839" 
d="M803 350q0 -72 -9.5 -126t-34.5 -103t-67.5 -79.5t-111 -48.5t-162.5 -18t-162 18t-110 48.5t-66.5 79t-33.5 102.5t-9 127v187h315v-271q0 -38 13.5 -60t54.5 -22t54 22t13 60v135q0 27 -6 48t-21.5 39.5t-24.5 26.5t-32 26q-7 5 -10 8l-200 160q-42 34 -70.5 66
t-45 59.5t-24.5 63.5t-10 66t-2 80q0 90 16.5 154t57 115t117 76.5t190.5 25.5q76 0 135.5 -11.5t100.5 -35.5t69 -54.5t43.5 -73.5t22 -88.5t6.5 -102.5v-152h-314v236q0 38 -12.5 58.5t-52.5 20.5t-53 -21t-13 -58v-99q0 -22 5 -41.5t10 -31.5t18 -26t18.5 -19.5t23 -18.5
t20.5 -16l204 -164q93 -74 121.5 -148t28.5 -200v-19zM692 1743l-112 -246h-285l-115 246h203l47 -131h10l47 131h205z" />
    <glyph glyph-name="scaron" unicode="&#x161;" horiz-adv-x="733" 
d="M711 287q0 -70 -15.5 -123t-52 -97.5t-106 -68t-168.5 -23.5t-169 23.5t-107.5 67t-53.5 95.5t-16 118v133h290v-158q0 -45 9.5 -64.5t44.5 -19.5t44 19.5t9 64.5v55q0 43 -11.5 59t-58.5 46l-174 108q-51 31 -78.5 61.5t-45 86t-17.5 139.5q0 142 73.5 215.5t260.5 73.5
q77 0 135.5 -14.5t95 -40t59 -63.5t31 -80t8.5 -95v-107h-280v146q0 23 -2 36t-14 24t-35 11t-35 -10.5t-14.5 -23t-2.5 -35.5v-47q0 -21 3 -36t14.5 -27.5t15.5 -16.5t24.5 -17t22.5 -14l174 -113q86 -56 114 -121t28 -167zM635 1425l-113 -245h-284l-115 245h203l47 -131
h10l47 131h205z" />
    <glyph glyph-name="Ydieresis" unicode="&#x178;" horiz-adv-x="813" 
d="M807 1393l-242 -901v-492h-317v492l-242 901h328l65 -441l11 -143h6q4 102 10 143l66 441h315zM645 1497h-196v246h196v-246zM373 1497h-195v246h195v-246z" />
    <glyph glyph-name="Zcaron" unicode="&#x17d;" horiz-adv-x="716" 
d="M711 0h-705v213l346 946h-325v234h663v-213l-352 -938h373v-242zM651 1743l-112 -246h-285l-115 246h203l47 -131h10l47 131h205z" />
    <glyph glyph-name="zcaron" unicode="&#x17e;" horiz-adv-x="622" 
d="M616 0h-610v174l297 688h-287v213h584v-194l-285 -658h301v-223zM600 1425l-113 -245h-284l-115 245h203l47 -131h10l47 131h205z" />
    <glyph glyph-name="florin" unicode="&#x192;" horiz-adv-x="819" 
d="M809 1389l-35 -201q-27 10 -72 10q-32 0 -47 -24t-24 -70l-15 -70h103l-37 -215h-102l-107 -594q-22 -120 -84 -185t-188 -65q-50 0 -95.5 7.5t-65.5 14.5l-20 7l35 201q17 -12 64 -12q56 0 71 94l95 532h-62l37 213h62l16 101q9 52 21 91.5t33.5 76.5t50.5 61t73.5 38.5
t101.5 14.5q50 0 98 -6.5t70 -12.5z" />
    <glyph glyph-name="circumflex" unicode="&#x2c6;" 
d="M768 1180h-203l-47 131h-10l-47 -131h-205l113 245h284z" />
    <glyph glyph-name="caron" unicode="&#x2c7;" 
d="M768 1425l-113 -245h-284l-115 245h203l47 -131h10l47 131h205z" />
    <glyph glyph-name="uni02C9" unicode="&#x2c9;" 
d="M784 1374l-61 -194h-483l61 194h483z" />
    <glyph glyph-name="breve" unicode="&#x2d8;" 
d="M760 1251q-46 -31 -115 -51t-133 -20q-62 0 -131 20t-117 51v185q46 -31 115 -51.5t131 -20.5q63 0 132.5 20.5t117.5 51.5v-185z" />
    <glyph glyph-name="dotaccent" unicode="&#x2d9;" 
d="M610 1180h-196v245h196v-245z" />
    <glyph glyph-name="ring" unicode="&#x2da;" 
d="M682 1348q0 -69 -50 -118.5t-120 -49.5t-120 49.5t-50 118.5q0 70 50 120t120 50t120 -50t50 -120zM573 1348q0 29 -17 47t-44 18t-44 -18t-17 -47q0 -28 17.5 -46t43.5 -18t43.5 18t17.5 46z" />
    <glyph glyph-name="ogonek" unicode="&#x2db;" 
d="M643 -328h-211l-5.5 5.5t-12.5 16.5t-15.5 29t-12 43.5t-5.5 59.5t10.5 61.5t25.5 49t30 34.5t25 22l11 7h142q-6 -7 -14 -20t-22 -53t-14 -81q0 -45 17 -88.5t34 -64.5z" />
    <glyph glyph-name="tilde" unicode="&#x2dc;" 
d="M776 1391q0 -111 -45.5 -164t-120.5 -53q-51 0 -113.5 29.5t-82.5 29.5q-28 0 -41 -10.5t-13 -38.5h-112v28q0 111 45.5 164.5t120.5 53.5q51 0 113.5 -30t82.5 -30q28 0 41 10.5t13 38.5h112v-28z" />
    <glyph glyph-name="hungarumlaut" unicode="&#x2dd;" 
d="M887 1425l-103 -245h-247l51 245h299zM485 1425l-100 -245h-248l51 245h297z" />
    <glyph glyph-name="uni03A9" unicode="&#x3a9;" horiz-adv-x="1501" 
d="M1386 0h-550v252q44 44 78 88.5t68 107.5t52.5 143.5t18.5 172.5q0 189 -82.5 305.5t-229.5 116.5t-236 -118t-89 -314q0 -296 219 -502v-252h-551v252h303q-47 34 -84.5 67.5t-81 87t-73 111.5t-49 138.5t-19.5 170.5q0 136 48.5 252.5t135 200t210.5 131t271 47.5
q156 0 280.5 -48.5t203.5 -133.5t120.5 -197.5t41.5 -244.5q0 -359 -314 -582h309v-252z" />
    <glyph glyph-name="uni03BC" unicode="&#x3bc;" horiz-adv-x="802" 
d="M733 0h-282l-11 102q-16 -25 -55 -55t-68 -37v-286h-276v1351h297v-751q0 -27 1.5 -41t13 -27.5t34.5 -13.5q17 0 29.5 8.5t15.5 17.5l4 8v799h297v-1075z" />
    <glyph glyph-name="pi" unicode="&#x3c0;" horiz-adv-x="1413" 
d="M1341 27q-67 -45 -188 -45q-66 0 -117 19t-82.5 50t-51.5 74t-28 87t-8 93v520h-293v-528q0 -186 -30 -297h-279q35 137 35 313v512q-37 0 -86.5 -14.5t-83.5 -34.5q-12 28 -36 85t-36 85q54 36 144.5 57t181.5 21h940v-199h-180v-483q0 -162 92 -162q21 0 59 19
q8 -29 23.5 -86.5t23.5 -85.5z" />
    <glyph glyph-name="endash" unicode="&#x2013;" horiz-adv-x="819" 
d="M778 399h-778v215h778v-215z" />
    <glyph glyph-name="emdash" unicode="&#x2014;" horiz-adv-x="1167" 
d="M1126 399h-1126v215h1126v-215z" />
    <glyph glyph-name="quoteleft" unicode="&#x2018;" horiz-adv-x="409" 
d="M362 952h-215l-133 441h287z" />
    <glyph glyph-name="quoteright" unicode="&#x2019;" horiz-adv-x="409" 
d="M371 1393l-133 -441h-215l61 441h287z" />
    <glyph glyph-name="quotesinglbase" unicode="&#x201a;" horiz-adv-x="409" 
d="M358 307l-133 -450h-215l62 450h286z" />
    <glyph glyph-name="quotedblleft" unicode="&#x201c;" horiz-adv-x="778" 
d="M745 952h-215l-133 441h287zM377 952h-215l-133 441h286z" />
    <glyph glyph-name="quotedblright" unicode="&#x201d;" horiz-adv-x="778" 
d="M743 1393l-133 -441h-215l62 441h286zM375 1393l-133 -441h-215l61 441h287z" />
    <glyph glyph-name="quotedblbase" unicode="&#x201e;" horiz-adv-x="778" 
d="M727 307l-133 -450h-215l61 450h287zM358 307l-133 -450h-215l62 450h286z" />
    <glyph glyph-name="dagger" unicode="&#x2020;" horiz-adv-x="696" 
d="M651 838l-213 14l15 -852h-209l14 852l-213 -14v170l211 -15l-12 400h209l-13 -400l211 15v-170z" />
    <glyph glyph-name="daggerdbl" unicode="&#x2021;" horiz-adv-x="696" 
d="M651 492l-211 14l13 -506h-209l12 506l-211 -14v170l211 -15l-12 111l12 114l-211 -14v170l211 -14l-12 379h209l-13 -379l211 14v-170l-211 14l13 -114l-13 -111l211 15v-170z" />
    <glyph glyph-name="bullet" unicode="&#x2022;" horiz-adv-x="727" 
d="M598 702q0 -128 -50 -184.5t-183 -56.5q-134 0 -185 56.5t-51 184.5q0 129 50 185.5t183 56.5t184.5 -57t51.5 -185z" />
    <glyph glyph-name="ellipsis" unicode="&#x2026;" horiz-adv-x="1259" 
d="M1167 0h-276v307h276v-307zM748 0h-277v307h277v-307zM328 0h-277v307h277v-307z" />
    <glyph glyph-name="perthousand" unicode="&#x2030;" horiz-adv-x="1583" 
d="M1542 170q0 -41 -8.5 -72.5t-30.5 -59.5t-66 -43t-108 -15q-65 0 -109 14.5t-65.5 42.5t-30 59t-8.5 72v293q0 41 8.5 72t30 59t65.5 42.5t109 14.5q64 0 108 -14.5t66 -42.5t30.5 -59t8.5 -72v-291zM465 938q0 -41 -8.5 -72.5t-30 -59.5t-65 -43t-107.5 -15
q-65 0 -109 14.5t-65.5 42.5t-30 59t-8.5 72v293q0 41 8.5 72t30 59t65.5 42.5t109 14.5q64 0 107.5 -14.5t65 -42.5t30 -59t8.5 -72v-291zM868 1393l-491 -1393h-154l492 1393h153zM1051 170q0 -41 -8.5 -72.5t-30.5 -59.5t-66 -43t-108 -15q-65 0 -109 14.5t-65.5 42.5
t-30 59t-8.5 72v293q0 41 8.5 72t30 59t65.5 42.5t109 14.5q64 0 108 -14.5t66 -42.5t30.5 -59t8.5 -72v-291zM1364 129v369q0 13 -1.5 20.5t-10 15t-23.5 7.5q-37 0 -37 -43v-369q0 -43 37 -43q35 0 35 43zM289 897v369q0 13 -1.5 20.5t-10 15t-23.5 7.5q-37 0 -37 -43
v-369q0 -43 37 -43q35 0 35 43zM872 129v369q0 13 -1.5 20.5t-9.5 15t-23 7.5q-37 0 -37 -43v-369q0 -43 37 -43q34 0 34 43z" />
    <glyph glyph-name="guilsinglleft" unicode="&#x2039;" horiz-adv-x="325" 
d="M287 113l-248 245v410l248 246v-287l-115 -143v-41l115 -144v-286z" />
    <glyph glyph-name="guilsinglright" unicode="&#x203a;" horiz-adv-x="325" 
d="M287 358l-248 -245v286l115 144v41l-115 143v287l248 -246v-410z" />
    <glyph glyph-name="fraction" unicode="&#x2044;" horiz-adv-x="733" 
d="M688 1393l-491 -1393h-162l491 1393h162z" />
    <glyph glyph-name="Euro" unicode="&#x20ac;" horiz-adv-x="849" 
d="M784 317q0 -84 -13.5 -142t-49 -105.5t-103 -71t-169.5 -23.5t-170 23.5t-103.5 71t-49 105.5t-13.5 142v187h-105v174h105v72h-105v174h105v149q0 84 13.5 142t49 105.5t103.5 71t170 23.5t169.5 -23.5t103 -71t49 -105.5t13.5 -142v-82h-280v152q0 30 -2 45t-13.5 26
t-33.5 11q-33 0 -43.5 -19.5t-10.5 -62.5v-219h226v-174h-226v-72h226v-174h-226v-266q0 -44 9.5 -63t42.5 -19q32 0 41.5 19t9.5 63v196h280v-117z" />
    <glyph glyph-name="afii61289" unicode="&#x2113;" horiz-adv-x="1044" 
d="M879 86q-150 -121 -304 -121q-140 0 -221 84q-45 45 -68.5 124.5t-23.5 160.5v102q-18 -16 -52.5 -50t-53.5 -50q-23 40 -78 133q63 61 184 174v401q0 213 90.5 330t247.5 117q67 0 118.5 -24t79.5 -63.5t42 -84t14 -92.5q0 -140 -63 -262t-185 -258q-12 -13 -36.5 -41.5
t-28.5 -32.5v-258q0 -107 30.5 -152t87.5 -45q70 0 142 72q47 -95 78 -164zM692 1190q0 39 -16.5 63.5t-48.5 24.5q-86 0 -86 -174v-252q24 30 28 37q55 67 89 150.5t34 150.5z" />
    <glyph glyph-name="trademark" unicode="&#x2122;" 
d="M944 862h-129v297l6 72h-4q-8 -41 -12 -72l-49 -297h-109l-49 297l-12 72h-6q6 -41 6 -72v-297h-121v531h182l41 -267l10 -73h2l9 73l43 267h192v-531zM416 1290h-94v-428h-142v428h-100v103h336v-103z" />
    <glyph glyph-name="Omega" unicode="&#x2126;" horiz-adv-x="1501" 
d="M1386 0h-550v252q44 44 78 88.5t68 107.5t52.5 143.5t18.5 172.5q0 189 -82.5 305.5t-229.5 116.5t-236 -118t-89 -314q0 -296 219 -502v-252h-551v252h303q-47 34 -84.5 67.5t-81 87t-73 111.5t-49 138.5t-19.5 170.5q0 136 48.5 252.5t135 200t210.5 131t271 47.5
q156 0 280.5 -48.5t203.5 -133.5t120.5 -197.5t41.5 -244.5q0 -359 -314 -582h309v-252z" />
    <glyph glyph-name="estimated" unicode="&#x212e;" horiz-adv-x="1380" 
d="M1243 590h-909v-406q133 -133 323 -133q146 0 251 68.5t184 199.5q21 -12 73 -45q-66 -98 -132 -160t-161.5 -100.5t-214.5 -38.5q-172 0 -305 83t-202.5 222t-69.5 310q0 172 68.5 311t201.5 222t307 83q134 0 244.5 -48t183 -132t113.5 -195.5t45 -240.5zM983 668v327
q-65 65 -149.5 100t-176.5 35q-193 0 -323 -133v-329h649z" />
    <glyph glyph-name="partialdiff" unicode="&#x2202;" horiz-adv-x="1226" 
d="M1169 932q0 -198 -47 -381q-35 -126 -90.5 -229.5t-129.5 -181t-170 -120.5t-206 -43q-198 0 -322 119t-124 303q0 120 31 222t83 171.5t120 118t141.5 71t148.5 22.5q86 0 154.5 -33t99.5 -82h4q6 53 6 102q0 132 -66 206.5t-184 74.5q-106 0 -198 -55q-10 34 -31 101
t-31 101q54 36 135.5 58t174.5 22q235 0 368 -150.5t133 -416.5zM829 674q-46 123 -161 123q-109 0 -193 -122t-84 -292q0 -79 37 -126.5t102 -47.5q75 0 139 70t103 172.5t57 222.5z" />
    <glyph glyph-name="Delta" unicode="&#x2206;" horiz-adv-x="1304" 
d="M1352 0h-1305v129q217 651 438 1305h437q64 -194 135.5 -412t159 -483t135.5 -410v-129zM981 252q-33 104 -120.5 380.5t-135.5 426.5q-10 34 -21.5 83t-11.5 50h-8q-13 -65 -31 -127q-124 -399 -256 -813h584z" />
    <glyph glyph-name="product" unicode="&#x220f;" horiz-adv-x="1531" 
d="M1384 -471h-317v1634h-604v-1634h-318v1905h1239v-1905z" />
    <glyph glyph-name="summation" unicode="&#x2211;" horiz-adv-x="1341" 
d="M1217 -471h-1170v170q342 475 569 793q-90 126 -269 379.5t-269 379.5v183h1100v-252h-713q125 -178 479 -684q-255 -360 -510 -717h783v-252z" />
    <glyph glyph-name="minus" unicode="&#x2212;" horiz-adv-x="993" 
d="M934 549h-875v133h875v-133z" />
    <glyph glyph-name="uni2215" unicode="&#x2215;" horiz-adv-x="733" 
d="M688 1393l-491 -1393h-162l491 1393h162z" />
    <glyph glyph-name="uni2219" unicode="&#x2219;" horiz-adv-x="409" 
d="M328 541h-277v307h277v-307z" />
    <glyph glyph-name="radical" unicode="&#x221a;" horiz-adv-x="1114" 
d="M1122 1493q-62 -253 -186.5 -759t-187.5 -759h-242q-164 402 -248 603q-19 -12 -57.5 -38t-57.5 -38q-16 25 -46 73t-46 72q130 89 334 225q40 -100 120 -298t120 -298q50 203 149.5 608.5t149.5 608.5h198z" />
    <glyph glyph-name="infinity" unicode="&#x221e;" horiz-adv-x="1673" 
d="M1581 602q0 -168 -107.5 -276.5t-271.5 -108.5q-111 0 -210.5 55.5t-164.5 155.5h-4q-69 -96 -164.5 -153.5t-209.5 -57.5q-75 0 -143 25t-122 71t-86 119.5t-32 163.5q0 88 32 161.5t85.5 120t121.5 72t141 25.5q116 0 212 -57.5t163 -153.5h4q57 85 153.5 148t219.5 63
q166 0 274.5 -106t108.5 -267zM1350 600q0 72 -44 120t-128 48q-71 0 -128 -43t-114 -127q104 -178 244 -178q80 0 125 53t45 127zM709 598q-112 172 -242 172q-77 0 -124.5 -50.5t-47.5 -123.5t49.5 -124.5t124.5 -51.5q134 0 240 178z" />
    <glyph glyph-name="integral" unicode="&#x222b;" horiz-adv-x="1038" 
d="M872 1286q-43 19 -88 19q-63 0 -98 -42t-35 -126v-1186q0 -201 -97.5 -318.5t-295.5 -117.5q-50 0 -108.5 9.5t-88.5 22.5q7 28 26.5 103.5t29.5 116.5q44 -19 88 -19q65 0 99 42.5t34 125.5v1182q0 204 98.5 322t296.5 118q56 0 115.5 -11.5t85.5 -25.5
q-10 -36 -31 -107.5t-31 -107.5z" />
    <glyph glyph-name="approxequal" unicode="&#x2248;" horiz-adv-x="1402" 
d="M1212 862q-61 -83 -130.5 -128.5t-166.5 -45.5q-113 0 -229 68q-110 69 -199 69q-111 0 -200 -137l-94 100q65 85 130.5 130t161.5 45q118 0 230 -68q116 -70 200 -70q110 0 203 138zM1212 418q-61 -83 -130.5 -128.5t-166.5 -45.5q-115 0 -229 67q-112 70 -199 70
q-111 0 -200 -137l-94 100q64 84 130 129t162 45q120 0 230 -67q116 -70 200 -70q111 0 203 137z" />
    <glyph glyph-name="notequal" unicode="&#x2260;" horiz-adv-x="1402" 
d="M1174 311h-549l-133 -270h-148l133 270h-246v138h316l153 309h-469v137h539l137 283h148l-140 -283h259v-137h-328l-152 -309h480v-138z" />
    <glyph glyph-name="lessequal" unicode="&#x2264;" horiz-adv-x="1402" 
d="M1174 0h-943v137h943v-137zM1174 274l-943 414v98l943 412v-149l-728 -310v-4l728 -313v-148z" />
    <glyph glyph-name="greaterequal" unicode="&#x2265;" horiz-adv-x="1402" 
d="M1171 0h-940v137h940v-137zM1174 688l-943 -414v150l725 309v6l-725 312v147l943 -412v-98z" />
    <glyph glyph-name="lozenge" unicode="&#x25ca;" horiz-adv-x="1198" 
d="M1055 717q-71 -120 -211.5 -358.5t-210.5 -358.5h-141q-70 119 -210.5 357.5t-209.5 357.5q70 120 210.5 359.5t209.5 359.5h141q70 -120 211 -358.5t211 -358.5zM834 717q-19 33 -118.5 204.5t-152.5 264.5q-51 -90 -145.5 -252t-126.5 -217q51 -90 145.5 -252
t126.5 -217q19 33 118.5 204.5t152.5 264.5z" />
    </font>
</defs>
</svg>
